<?xml version="1.0" encoding="UTF-8" standalone="no"?>
<!DOCTYPE svg PUBLIC "-//W3C//DTD SVG 20010904//EN"
              "http://www.w3.org/TR/2001/REC-SVG-20010904/DTD/svg10.dtd">

<svg xmlns="http://www.w3.org/2000/svg"
     width="51.25in" height="54.6528in"
     viewBox="0 0 3690 3935">
  <path id="Seleção #2"
        fill="none" stroke="black" stroke-width="1"
        d="M 1379.00,137.00
           C 1379.00,137.00 1380.00,137.00 1380.00,137.00
             1380.00,137.00 1379.00,138.00 1379.00,138.00
             1379.00,138.00 1379.00,137.00 1379.00,137.00 Z
           M 1955.00,256.00
           C 1955.00,256.00 1956.00,256.00 1956.00,256.00
             1956.00,256.00 1955.00,257.00 1955.00,257.00
             1955.00,257.00 1955.00,256.00 1955.00,256.00 Z
           M 1519.00,280.00
           C 1519.00,280.00 1520.00,280.00 1520.00,280.00
             1520.00,280.00 1519.00,281.00 1519.00,281.00
             1519.00,281.00 1519.00,280.00 1519.00,280.00 Z
           M 2415.00,336.00
           C 2424.21,338.24 2423.89,335.87 2429.09,334.54
             2429.09,334.54 2435.91,333.74 2435.91,333.74
             2435.91,333.74 2447.01,331.31 2447.01,331.31
             2460.32,329.24 2474.51,329.98 2488.00,330.00
             2502.04,330.02 2516.36,333.54 2530.00,336.49
             2530.00,336.49 2539.00,338.09 2539.00,338.09
             2539.00,338.09 2561.00,345.14 2561.00,345.14
             2561.00,345.14 2604.00,358.93 2604.00,358.93
             2604.00,358.93 2616.00,363.87 2616.00,363.87
             2616.00,363.87 2623.96,366.00 2623.96,366.00
             2623.96,366.00 2630.15,369.46 2630.15,369.46
             2630.15,369.46 2635.42,371.02 2635.42,371.02
             2635.42,371.02 2658.00,381.00 2658.00,381.00
             2658.00,381.00 2686.00,392.92 2686.00,392.92
             2686.00,392.92 2700.00,400.48 2700.00,400.48
             2700.00,400.48 2738.00,419.37 2738.00,419.37
             2738.00,419.37 2745.00,423.79 2745.00,423.79
             2745.00,423.79 2754.00,428.12 2754.00,428.12
             2754.00,428.12 2772.00,437.81 2772.00,437.81
             2772.00,437.81 2783.42,444.23 2783.42,444.23
             2783.42,444.23 2789.83,449.11 2789.83,449.11
             2793.91,451.51 2794.40,449.17 2801.17,454.06
             2808.60,459.42 2815.63,467.21 2825.00,469.00
             2827.43,474.17 2828.73,472.84 2833.00,475.54
             2833.00,475.54 2840.00,480.84 2840.00,480.84
             2840.00,480.84 2848.87,486.75 2848.87,486.75
             2848.87,486.75 2871.00,502.32 2871.00,502.32
             2871.00,502.32 2892.58,516.45 2892.58,516.45
             2901.72,523.35 2905.43,527.36 2915.91,533.37
             2918.93,535.11 2919.50,537.04 2923.00,538.00
             2924.20,541.44 2930.35,545.85 2934.00,546.00
             2934.00,546.00 2940.00,551.00 2940.00,551.00
             2941.43,555.46 2947.68,558.83 2952.00,560.00
             2954.34,564.48 2963.68,571.10 2967.99,574.44
             2967.99,574.44 2992.58,596.43 2992.58,596.43
             2996.11,599.91 3003.50,609.12 3008.00,610.00
             3009.64,615.85 3026.00,631.26 3030.99,637.20
             3033.03,639.63 3036.65,646.16 3039.00,647.00
             3039.00,647.00 3052.23,669.42 3052.23,669.42
             3052.23,669.42 3056.14,679.00 3056.14,679.00
             3056.14,679.00 3064.29,698.04 3064.29,698.04
             3064.29,698.04 3068.17,720.00 3068.17,720.00
             3068.17,720.00 3069.96,730.00 3069.96,730.00
             3069.96,730.00 3069.96,752.00 3069.96,752.00
             3069.96,752.00 3067.00,785.00 3067.00,785.00
             3063.44,786.53 3063.03,793.46 3062.24,796.89
             3061.85,798.59 3054.31,811.11 3053.00,818.00
             3048.70,820.41 3043.67,828.09 3043.00,833.00
             3038.66,833.92 3031.43,844.27 3028.24,847.95
             3019.97,857.48 3004.86,868.13 2995.00,876.85
             2990.74,880.61 2984.66,883.52 2983.00,889.00
             2976.57,890.87 2975.61,893.80 2970.58,897.18
             2970.58,897.18 2964.17,900.92 2964.17,900.92
             2964.17,900.92 2957.96,906.57 2957.96,906.57
             2957.96,906.57 2945.83,916.58 2945.83,916.58
             2942.28,919.61 2936.28,922.42 2935.00,927.00
             2929.01,930.53 2922.17,934.60 2919.00,941.00
             2912.12,942.87 2900.24,954.48 2894.58,959.55
             2894.58,959.55 2885.32,966.87 2885.32,966.87
             2885.32,966.87 2881.51,970.83 2881.51,970.83
             2881.51,970.83 2876.10,974.68 2876.10,974.68
             2876.10,974.68 2868.90,982.10 2868.90,982.10
             2868.90,982.10 2851.17,994.37 2851.17,994.37
             2851.17,994.37 2845.91,999.91 2845.91,999.91
             2845.91,999.91 2832.04,1011.71 2832.04,1011.71
             2829.90,1013.59 2826.78,1015.21 2826.00,1018.00
             2820.48,1019.57 2812.43,1028.83 2808.22,1033.08
             2808.22,1033.08 2789.00,1048.83 2789.00,1048.83
             2785.52,1051.90 2780.26,1054.34 2779.00,1059.00
             2775.33,1060.05 2773.79,1062.42 2771.00,1064.87
             2766.95,1068.45 2756.49,1075.16 2755.00,1080.00
             2755.00,1080.00 2746.00,1085.00 2746.00,1085.00
             2746.00,1085.00 2746.00,1089.00 2746.00,1089.00
             2737.63,1091.67 2738.93,1093.91 2733.79,1098.29
             2733.79,1098.29 2718.30,1110.74 2718.30,1110.74
             2718.30,1110.74 2714.46,1115.30 2714.46,1115.30
             2714.46,1115.30 2705.42,1122.37 2705.42,1122.37
             2705.42,1122.37 2697.00,1130.83 2697.00,1130.83
             2697.00,1130.83 2680.05,1145.26 2680.05,1145.26
             2680.05,1145.26 2673.54,1152.32 2673.54,1152.32
             2665.37,1159.73 2664.26,1159.68 2656.00,1168.76
             2656.00,1168.76 2644.04,1178.46 2644.04,1178.46
             2639.87,1182.10 2639.71,1183.86 2636.79,1186.87
             2634.40,1189.33 2632.04,1189.65 2631.00,1193.00
             2625.83,1194.48 2622.83,1199.76 2619.33,1203.53
             2619.33,1203.53 2605.09,1215.05 2605.09,1215.05
             2602.13,1217.85 2598.91,1222.47 2594.96,1223.57
             2586.77,1225.86 2569.68,1215.59 2562.00,1211.75
             2562.00,1211.75 2511.00,1187.31 2511.00,1187.31
             2511.00,1187.31 2480.00,1173.00 2480.00,1173.00
             2484.16,1162.37 2499.61,1152.15 2507.72,1143.83
             2507.72,1143.83 2532.00,1119.04 2532.00,1119.04
             2532.00,1119.04 2568.00,1085.05 2568.00,1085.05
             2568.00,1085.05 2574.55,1079.56 2574.55,1079.56
             2574.55,1079.56 2578.26,1075.59 2578.26,1075.59
             2578.26,1075.59 2584.00,1070.90 2584.00,1070.90
             2584.00,1070.90 2596.96,1058.18 2596.96,1058.18
             2596.96,1058.18 2606.84,1049.70 2606.84,1049.70
             2606.84,1049.70 2612.09,1044.33 2612.09,1044.33
             2612.09,1044.33 2620.68,1037.96 2620.68,1037.96
             2620.68,1037.96 2628.59,1029.37 2628.59,1029.37
             2628.59,1029.37 2635.00,1023.90 2635.00,1023.90
             2635.00,1023.90 2657.09,1003.29 2657.09,1003.29
             2657.09,1003.29 2665.91,996.49 2665.91,996.49
             2665.91,996.49 2673.04,989.29 2673.04,989.29
             2673.04,989.29 2686.00,978.83 2686.00,978.83
             2686.00,978.83 2719.00,949.20 2719.00,949.20
             2719.00,949.20 2726.00,943.79 2726.00,943.79
             2726.00,943.79 2739.00,931.29 2739.00,931.29
             2739.00,931.29 2758.39,916.17 2758.39,916.17
             2758.39,916.17 2764.17,910.29 2764.17,910.29
             2764.17,910.29 2772.00,903.83 2772.00,903.83
             2772.00,903.83 2779.00,897.22 2779.00,897.22
             2779.00,897.22 2785.58,892.52 2785.58,892.52
             2785.58,892.52 2804.00,876.29 2804.00,876.29
             2804.00,876.29 2829.72,855.31 2829.72,855.31
             2829.72,855.31 2854.00,834.44 2854.00,834.44
             2854.00,834.44 2872.00,819.80 2872.00,819.80
             2872.00,819.80 2879.72,814.37 2879.72,814.37
             2879.72,814.37 2888.00,806.75 2888.00,806.75
             2888.00,806.75 2931.72,771.28 2931.72,771.28
             2931.72,771.28 2939.00,764.66 2939.00,764.66
             2939.00,764.66 2966.74,741.83 2966.74,741.83
             2974.55,733.38 2981.25,717.56 2981.91,706.00
             2982.22,700.51 2979.49,683.11 2977.40,678.09
             2977.40,678.09 2972.50,669.99 2972.50,669.99
             2963.10,654.80 2956.27,646.19 2944.08,633.00
             2944.08,633.00 2914.58,603.98 2914.58,603.98
             2914.58,603.98 2907.00,598.68 2907.00,598.68
             2907.00,598.68 2883.00,579.40 2883.00,579.40
             2883.00,579.40 2846.72,551.40 2846.72,551.40
             2846.72,551.40 2831.00,540.51 2831.00,540.51
             2831.00,540.51 2822.00,533.43 2822.00,533.43
             2822.00,533.43 2803.00,520.96 2803.00,520.96
             2803.00,520.96 2782.83,506.72 2782.83,506.72
             2782.83,506.72 2776.00,502.93 2776.00,502.93
             2776.00,502.93 2755.00,489.64 2755.00,489.64
             2755.00,489.64 2743.00,483.45 2743.00,483.45
             2743.00,483.45 2730.00,475.51 2730.00,475.51
             2730.00,475.51 2712.59,465.79 2712.59,465.79
             2711.36,464.71 2711.51,464.33 2711.00,463.00
             2704.30,462.23 2699.77,458.27 2694.00,455.20
             2694.00,455.20 2658.01,436.38 2658.01,436.38
             2658.01,436.38 2646.00,431.32 2646.00,431.32
             2646.00,431.32 2638.00,426.58 2638.00,426.58
             2638.00,426.58 2629.00,423.10 2629.00,423.10
             2629.00,423.10 2619.00,417.86 2619.00,417.86
             2619.00,417.86 2592.00,406.88 2592.00,406.88
             2592.00,406.88 2584.00,403.23 2584.00,403.23
             2584.00,403.23 2572.99,400.01 2572.99,400.01
             2572.99,400.01 2564.00,395.69 2564.00,395.69
             2564.00,395.69 2558.00,394.37 2558.00,394.37
             2558.00,394.37 2549.00,390.70 2549.00,390.70
             2549.00,390.70 2532.00,385.86 2532.00,385.86
             2519.13,382.06 2497.01,374.51 2484.00,373.90
             2484.00,373.90 2477.00,373.90 2477.00,373.90
             2469.15,374.08 2462.81,373.56 2455.00,375.51
             2455.00,375.51 2446.00,378.48 2446.00,378.48
             2435.82,380.90 2431.80,381.36 2422.17,386.81
             2416.98,389.75 2405.03,399.74 2400.00,403.92
             2400.00,403.92 2388.72,413.14 2388.72,413.14
             2388.72,413.14 2382.17,417.60 2382.17,417.60
             2382.17,417.60 2370.00,428.58 2370.00,428.58
             2370.00,428.58 2347.04,446.66 2347.04,446.66
             2347.04,446.66 2338.96,453.87 2338.96,453.87
             2338.96,453.87 2329.00,461.32 2329.00,461.32
             2329.00,461.32 2320.00,469.87 2320.00,469.87
             2320.00,469.87 2310.00,477.30 2310.00,477.30
             2310.00,477.30 2284.00,500.20 2284.00,500.20
             2284.00,500.20 2240.16,536.59 2240.16,536.59
             2240.16,536.59 2206.00,566.71 2206.00,566.71
             2206.00,566.71 2196.28,574.42 2196.28,574.42
             2196.28,574.42 2175.99,592.63 2175.99,592.63
             2175.99,592.63 2164.00,602.28 2164.00,602.28
             2164.00,602.28 2148.00,616.78 2148.00,616.78
             2148.00,616.78 2141.28,621.49 2141.28,621.49
             2141.28,621.49 2135.96,626.83 2135.96,626.83
             2135.96,626.83 2123.04,638.70 2123.04,638.70
             2123.04,638.70 2112.21,647.59 2112.21,647.59
             2112.21,647.59 2105.90,654.20 2105.90,654.20
             2105.90,654.20 2058.00,697.91 2058.00,697.91
             2058.00,697.91 2033.32,720.12 2033.32,720.12
             2033.32,720.12 2026.92,726.76 2026.92,726.76
             2026.92,726.76 2003.17,748.13 2003.17,748.13
             2003.17,748.13 1980.01,770.91 1980.01,770.91
             1980.01,770.91 1952.04,797.09 1952.04,797.09
             1952.04,797.09 1942.00,808.00 1942.00,808.00
             1942.00,808.00 1904.00,846.00 1904.00,846.00
             1904.00,846.00 1819.09,933.00 1819.09,933.00
             1819.09,933.00 1800.91,953.01 1800.91,953.01
             1800.91,953.01 1788.17,966.00 1788.17,966.00
             1788.17,966.00 1757.71,1001.00 1757.71,1001.00
             1757.71,1001.00 1747.17,1012.00 1747.17,1012.00
             1747.17,1012.00 1725.25,1038.00 1725.25,1038.00
             1725.25,1038.00 1718.45,1045.28 1718.45,1045.28
             1718.45,1045.28 1701.26,1065.83 1701.26,1065.83
             1701.26,1065.83 1694.44,1073.01 1694.44,1073.01
             1694.44,1073.01 1678.58,1093.00 1678.58,1093.00
             1678.58,1093.00 1658.12,1117.91 1658.12,1117.91
             1658.12,1117.91 1652.37,1124.09 1652.37,1124.09
             1652.37,1124.09 1647.62,1131.00 1647.62,1131.00
             1647.62,1131.00 1630.53,1152.99 1630.53,1152.99
             1630.53,1152.99 1622.32,1163.01 1622.32,1163.01
             1622.32,1163.01 1617.82,1170.00 1617.82,1170.00
             1617.82,1170.00 1587.86,1209.17 1587.86,1209.17
             1587.86,1209.17 1580.97,1220.00 1580.97,1220.00
             1580.97,1220.00 1572.65,1231.00 1572.65,1231.00
             1572.65,1231.00 1562.22,1246.00 1562.22,1246.00
             1559.92,1249.46 1558.25,1253.01 1554.00,1254.00
             1553.97,1259.88 1551.20,1261.41 1547.97,1266.00
             1547.97,1266.00 1540.67,1276.28 1540.67,1276.28
             1540.67,1276.28 1533.77,1288.00 1533.77,1288.00
             1531.97,1290.64 1528.21,1295.86 1524.45,1293.33
             1522.67,1292.13 1518.52,1278.91 1517.36,1276.09
             1517.36,1276.09 1507.92,1254.00 1507.92,1254.00
             1507.92,1254.00 1500.29,1234.00 1500.29,1234.00
             1500.29,1234.00 1494.71,1220.00 1494.71,1220.00
             1494.71,1220.00 1487.64,1204.00 1487.64,1204.00
             1487.64,1204.00 1480.93,1185.00 1480.93,1185.00
             1480.93,1185.00 1477.05,1177.00 1477.05,1177.00
             1477.05,1177.00 1468.55,1155.00 1468.55,1155.00
             1468.55,1155.00 1463.32,1143.00 1463.32,1143.00
             1463.32,1143.00 1460.69,1135.00 1460.69,1135.00
             1460.69,1135.00 1454.45,1121.00 1454.45,1121.00
             1454.45,1121.00 1448.23,1104.00 1448.23,1104.00
             1448.23,1104.00 1431.94,1063.00 1431.94,1063.00
             1431.94,1063.00 1418.45,1030.00 1418.45,1030.00
             1418.45,1030.00 1412.05,1011.00 1412.05,1011.00
             1412.05,1011.00 1408.66,1004.00 1408.66,1004.00
             1408.66,1004.00 1406.33,997.00 1406.33,997.00
             1406.33,997.00 1402.01,988.00 1402.01,988.00
             1402.01,988.00 1397.31,974.00 1397.31,974.00
             1397.31,974.00 1391.91,961.00 1391.91,961.00
             1391.91,961.00 1386.08,945.00 1386.08,945.00
             1386.08,945.00 1379.26,929.00 1379.26,929.00
             1379.26,929.00 1359.47,876.00 1359.47,876.00
             1359.47,876.00 1347.24,845.00 1347.24,845.00
             1347.24,845.00 1345.21,838.00 1345.21,838.00
             1345.21,838.00 1339.51,826.00 1339.51,826.00
             1339.51,826.00 1331.09,802.00 1331.09,802.00
             1331.09,802.00 1315.55,763.00 1315.55,763.00
             1315.55,763.00 1293.26,707.00 1293.26,707.00
             1293.26,707.00 1278.12,684.09 1278.12,684.09
             1273.51,677.66 1253.45,655.03 1247.99,650.21
             1247.99,650.21 1212.00,621.49 1212.00,621.49
             1212.00,621.49 1198.58,610.18 1198.58,610.18
             1198.58,610.18 1187.00,602.57 1187.00,602.57
             1187.00,602.57 1153.00,577.96 1153.00,577.96
             1153.00,577.96 1144.83,571.03 1144.83,571.03
             1144.83,571.03 1119.00,555.18 1119.00,555.18
             1119.00,555.18 1105.00,547.83 1105.00,547.83
             1105.00,547.83 1089.00,537.04 1089.00,537.04
             1089.00,537.04 1048.00,513.91 1048.00,513.91
             1048.00,513.91 1036.00,506.40 1036.00,506.40
             1036.00,506.40 1028.00,502.68 1028.00,502.68
             1028.00,502.68 1017.00,496.37 1017.00,496.37
             1017.00,496.37 1008.00,492.51 1008.00,492.51
             1008.00,492.51 995.00,484.75 995.00,484.75
             966.92,471.01 937.33,460.13 908.00,449.57
             908.00,449.57 867.00,435.57 867.00,435.57
             867.00,435.57 857.00,432.98 857.00,432.98
             857.00,432.98 843.00,427.93 843.00,427.93
             843.00,427.93 829.00,425.58 829.00,425.58
             818.74,423.33 806.43,420.02 796.00,420.00
             777.43,419.97 785.11,421.26 774.04,422.67
             768.40,423.39 762.31,423.57 757.00,425.92
             757.00,425.92 751.00,429.48 751.00,429.48
             747.84,431.27 746.30,431.56 743.00,433.94
             731.56,442.18 724.84,454.38 721.80,467.83
             720.29,474.51 719.91,471.97 720.00,480.00
             720.04,483.60 723.16,501.80 724.33,505.00
             724.33,505.00 729.38,516.00 729.38,516.00
             729.38,516.00 742.55,550.00 742.55,550.00
             742.55,550.00 753.20,579.00 753.20,579.00
             753.20,579.00 759.90,594.00 759.90,594.00
             759.90,594.00 765.12,611.00 765.12,611.00
             765.12,611.00 770.09,622.00 770.09,622.00
             770.09,622.00 777.47,641.00 777.47,641.00
             777.47,641.00 782.11,655.00 782.11,655.00
             782.11,655.00 787.46,667.00 787.46,667.00
             787.46,667.00 792.50,682.00 792.50,682.00
             792.50,682.00 799.60,699.00 799.60,699.00
             799.60,699.00 811.55,730.00 811.55,730.00
             811.55,730.00 819.31,751.00 819.31,751.00
             819.31,751.00 832.41,783.00 832.41,783.00
             832.41,783.00 836.83,796.00 836.83,796.00
             836.83,796.00 858.54,850.00 858.54,850.00
             858.54,850.00 863.75,865.91 863.75,865.91
             863.75,865.91 869.20,876.00 869.20,876.00
             869.20,876.00 872.31,886.00 872.31,886.00
             872.31,886.00 881.39,908.00 881.39,908.00
             881.39,908.00 886.95,923.00 886.95,923.00
             886.95,923.00 890.91,931.00 890.91,931.00
             890.91,931.00 899.46,954.00 899.46,954.00
             899.46,954.00 903.05,962.00 903.05,962.00
             903.05,962.00 905.20,969.00 905.20,969.00
             905.20,969.00 911.08,982.00 911.08,982.00
             911.08,982.00 919.13,1004.00 919.13,1004.00
             919.13,1004.00 923.22,1012.00 923.22,1012.00
             923.22,1012.00 926.45,1021.00 926.45,1021.00
             926.45,1021.00 938.08,1049.00 938.08,1049.00
             938.08,1049.00 940.87,1057.00 940.87,1057.00
             940.87,1057.00 949.54,1077.00 949.54,1077.00
             949.54,1077.00 952.64,1087.00 952.64,1087.00
             952.64,1087.00 957.06,1095.00 957.06,1095.00
             957.06,1095.00 963.59,1112.00 963.59,1112.00
             963.59,1112.00 967.29,1120.00 967.29,1120.00
             967.29,1120.00 971.34,1132.00 971.34,1132.00
             971.34,1132.00 979.38,1149.00 979.38,1149.00
             979.38,1149.00 990.43,1176.00 990.43,1176.00
             990.43,1176.00 1007.58,1217.00 1007.58,1217.00
             1007.58,1217.00 1013.14,1229.00 1013.14,1229.00
             1013.14,1229.00 1022.86,1252.00 1022.86,1252.00
             1025.67,1258.75 1028.87,1264.68 1030.00,1272.00
             1030.00,1272.00 1011.00,1264.00 1011.00,1264.00
             1011.00,1264.00 1000.00,1259.65 1000.00,1259.65
             1000.00,1259.65 991.00,1254.89 991.00,1254.89
             991.00,1254.89 977.00,1249.14 977.00,1249.14
             977.00,1249.14 959.00,1241.45 959.00,1241.45
             959.00,1241.45 928.00,1230.42 928.00,1230.42
             928.00,1230.42 903.19,1222.58 903.19,1222.58
             898.13,1219.73 893.64,1204.70 891.53,1199.00
             890.17,1195.34 889.03,1190.29 885.00,1189.00
             885.67,1183.09 882.89,1179.29 880.71,1174.00
             880.71,1174.00 876.57,1163.00 876.57,1163.00
             876.57,1163.00 867.99,1144.00 867.99,1144.00
             867.99,1144.00 862.05,1128.00 862.05,1128.00
             862.05,1128.00 857.36,1119.00 857.36,1119.00
             857.36,1119.00 854.87,1111.04 854.87,1111.04
             854.87,1111.04 852.23,1105.72 852.23,1105.72
             852.23,1105.72 850.40,1099.00 850.40,1099.00
             850.40,1099.00 845.64,1090.01 845.64,1090.01
             845.64,1090.01 838.24,1068.28 838.24,1068.28
             838.24,1068.28 832.46,1056.72 832.46,1056.72
             832.46,1056.72 827.88,1044.04 827.88,1044.04
             827.88,1044.04 824.55,1037.83 824.55,1037.83
             824.55,1037.83 823.16,1031.00 823.16,1031.00
             820.83,1024.82 818.48,1025.72 818.00,1016.00
             818.00,1016.00 815.00,1016.00 815.00,1016.00
             814.12,1005.26 812.02,1006.65 808.77,998.58
             808.77,998.58 806.95,992.00 806.95,992.00
             806.95,992.00 802.26,982.00 802.26,982.00
             802.26,982.00 799.56,973.00 799.56,973.00
             799.56,973.00 791.92,954.00 791.92,954.00
             791.92,954.00 788.63,944.00 788.63,944.00
             788.63,944.00 777.95,919.00 777.95,919.00
             777.95,919.00 773.79,905.72 773.79,905.72
             770.58,896.28 764.27,889.78 764.00,879.00
             764.00,879.00 761.00,879.00 761.00,879.00
             760.62,871.42 753.08,854.80 750.06,847.00
             750.06,847.00 722.88,779.00 722.88,779.00
             722.88,779.00 717.83,763.00 717.83,763.00
             717.83,763.00 712.46,750.04 712.46,750.04
             712.46,750.04 709.50,744.72 709.50,744.72
             709.50,744.72 707.90,738.00 707.90,738.00
             707.90,738.00 699.38,716.72 699.38,716.72
             699.38,716.72 697.97,710.58 697.97,710.58
             697.97,710.58 694.91,704.00 694.91,704.00
             694.91,704.00 689.69,690.00 689.69,690.00
             689.69,690.00 685.88,682.00 685.88,682.00
             685.88,682.00 683.54,674.00 683.54,674.00
             683.54,674.00 674.94,653.00 674.94,653.00
             674.94,653.00 672.56,645.00 672.56,645.00
             672.56,645.00 665.61,628.00 665.61,628.00
             665.61,628.00 653.79,596.00 653.79,596.00
             653.79,596.00 650.64,589.00 650.64,589.00
             650.64,589.00 645.64,574.00 645.64,574.00
             641.77,562.09 637.02,545.48 637.00,533.00
             637.00,533.00 637.00,509.00 637.00,509.00
             637.08,502.63 637.76,503.32 638.68,498.00
             638.68,498.00 640.17,487.00 640.17,487.00
             640.17,487.00 647.25,465.00 647.25,465.00
             647.25,465.00 651.67,457.00 651.67,457.00
             651.67,457.00 654.64,449.09 654.64,449.09
             657.42,443.27 662.91,439.72 664.00,433.00
             664.00,433.00 667.00,434.00 667.00,434.00
             667.73,430.20 667.93,427.95 672.00,427.00
             674.53,419.09 684.62,415.35 686.00,411.00
             686.00,411.00 691.00,406.00 691.00,406.00
             698.06,404.52 699.10,401.53 705.00,398.40
             707.77,396.93 709.93,397.12 711.00,394.00
             717.51,392.61 723.84,387.85 730.00,385.54
             730.00,385.54 768.00,377.29 768.00,377.29
             786.10,374.93 802.07,377.12 820.00,379.02
             820.00,379.02 828.00,379.02 828.00,379.02
             828.00,379.02 838.00,381.70 838.00,381.70
             838.00,381.70 846.00,382.29 846.00,382.29
             846.00,382.29 864.00,385.22 864.00,385.22
             864.00,385.22 882.00,391.22 882.00,391.22
             882.00,391.22 918.00,401.00 918.00,401.00
             927.05,404.05 936.22,409.51 946.00,409.00
             948.82,413.49 951.42,412.33 956.00,414.30
             956.00,414.30 975.00,422.21 975.00,422.21
             975.00,422.21 982.00,424.26 982.00,424.26
             982.00,424.26 999.00,432.12 999.00,432.12
             999.00,432.12 1006.00,434.53 1006.00,434.53
             1006.00,434.53 1013.00,438.25 1013.00,438.25
             1013.00,438.25 1019.00,440.52 1019.00,440.52
             1019.00,440.52 1038.00,449.37 1038.00,449.37
             1038.00,449.37 1043.72,451.43 1043.72,451.43
             1043.72,451.43 1049.04,454.74 1049.04,454.74
             1049.04,454.74 1062.72,461.37 1062.72,461.37
             1071.92,465.66 1084.60,475.91 1094.00,476.00
             1094.00,476.00 1100.00,484.00 1100.00,484.00
             1108.17,484.87 1117.84,491.92 1125.00,496.08
             1125.00,496.08 1142.58,505.76 1142.58,505.76
             1142.58,505.76 1155.00,514.46 1155.00,514.46
             1155.00,514.46 1171.72,524.34 1171.72,524.34
             1179.17,528.61 1183.12,535.70 1192.00,536.00
             1194.18,540.49 1202.87,547.45 1208.00,548.00
             1209.51,552.66 1221.19,559.27 1226.00,560.00
             1226.00,560.00 1228.00,562.00 1228.00,562.00
             1229.09,565.19 1232.37,566.87 1235.00,568.88
             1235.00,568.88 1250.00,580.03 1250.00,580.03
             1250.00,580.03 1263.26,591.13 1263.26,591.13
             1263.26,591.13 1275.00,598.61 1275.00,598.61
             1275.00,598.61 1296.00,616.27 1296.00,616.27
             1300.41,620.05 1311.30,627.96 1313.00,633.00
             1321.17,634.37 1317.44,639.36 1326.00,642.00
             1328.65,648.77 1333.89,652.76 1338.71,658.00
             1340.95,660.43 1341.76,662.99 1345.00,664.00
             1345.71,667.98 1348.67,670.75 1350.97,674.00
             1350.97,674.00 1363.88,693.02 1363.88,693.02
             1365.94,696.69 1367.71,701.79 1372.00,703.00
             1372.00,703.00 1376.58,717.00 1376.58,717.00
             1376.58,717.00 1382.96,731.00 1382.96,731.00
             1382.96,731.00 1384.68,737.00 1384.68,737.00
             1384.68,737.00 1387.40,743.00 1387.40,743.00
             1387.40,743.00 1391.20,754.00 1391.20,754.00
             1391.20,754.00 1422.58,834.00 1422.58,834.00
             1422.58,834.00 1458.39,926.00 1458.39,926.00
             1458.39,926.00 1461.91,937.00 1461.91,937.00
             1461.91,937.00 1473.55,966.00 1473.55,966.00
             1473.55,966.00 1479.45,982.00 1479.45,982.00
             1479.45,982.00 1507.69,1053.00 1507.69,1053.00
             1507.69,1053.00 1550.00,1160.00 1550.00,1160.00
             1550.00,1160.00 1587.45,1112.00 1587.45,1112.00
             1587.45,1112.00 1627.43,1063.00 1627.43,1063.00
             1627.43,1063.00 1635.56,1054.00 1635.56,1054.00
             1635.56,1054.00 1667.28,1016.00 1667.28,1016.00
             1667.28,1016.00 1726.83,950.00 1726.83,950.00
             1726.83,950.00 1763.09,910.00 1763.09,910.00
             1763.09,910.00 1777.91,895.00 1777.91,895.00
             1777.91,895.00 1799.04,872.00 1799.04,872.00
             1799.04,872.00 1831.96,839.00 1831.96,839.00
             1831.96,839.00 1856.00,814.01 1856.00,814.01
             1856.00,814.01 1870.00,800.99 1870.00,800.99
             1870.00,800.99 1932.00,740.91 1932.00,740.91
             1932.00,740.91 1949.00,724.04 1949.00,724.04
             1949.00,724.04 1974.00,700.91 1974.00,700.91
             1974.00,700.91 1999.00,677.17 1999.00,677.17
             1999.00,677.17 2072.00,611.17 2072.00,611.17
             2072.00,611.17 2134.00,557.72 2134.00,557.72
             2134.00,557.72 2254.00,455.28 2254.00,455.28
             2254.00,455.28 2266.04,445.74 2266.04,445.74
             2266.04,445.74 2299.42,416.63 2299.42,416.63
             2299.42,416.63 2318.00,402.49 2318.00,402.49
             2318.00,402.49 2326.00,395.32 2326.00,395.32
             2326.00,395.32 2348.91,376.56 2348.91,376.56
             2348.91,376.56 2353.28,372.11 2353.28,372.11
             2353.28,372.11 2383.00,351.00 2383.00,351.00
             2389.15,351.02 2394.83,346.23 2400.34,343.83
             2400.34,343.83 2408.01,340.99 2408.01,340.99
             2410.85,339.83 2413.95,339.01 2415.00,336.00 Z
           M 1279.00,351.00
           C 1279.00,351.00 1280.00,351.00 1280.00,351.00
             1280.00,351.00 1279.00,352.00 1279.00,352.00
             1279.00,352.00 1279.00,351.00 1279.00,351.00 Z
           M 2170.00,379.00
           C 2170.00,379.00 2171.00,379.00 2171.00,379.00
             2171.00,379.00 2170.00,380.00 2170.00,380.00
             2170.00,380.00 2170.00,379.00 2170.00,379.00 Z
           M 2233.00,423.00
           C 2233.00,423.00 2234.00,423.00 2234.00,423.00
             2234.00,423.00 2233.00,424.00 2233.00,424.00
             2233.00,424.00 2233.00,423.00 2233.00,423.00 Z
           M 1228.00,535.00
           C 1228.00,535.00 1229.00,535.00 1229.00,535.00
             1229.00,535.00 1228.00,536.00 1228.00,536.00
             1228.00,536.00 1228.00,535.00 1228.00,535.00 Z
           M 1367.00,636.00
           C 1367.00,636.00 1368.00,636.00 1368.00,636.00
             1368.00,636.00 1367.00,637.00 1367.00,637.00
             1367.00,637.00 1367.00,636.00 1367.00,636.00 Z
           M 696.00,710.00
           C 696.00,710.00 697.00,710.00 697.00,710.00
             697.00,710.00 696.00,711.00 696.00,711.00
             696.00,711.00 696.00,710.00 696.00,710.00 Z
           M 3062.00,797.00
           C 3062.00,797.00 3061.00,797.00 3061.00,797.00
             3061.00,797.00 3062.00,798.00 3062.00,798.00
             3062.00,798.00 3062.00,797.00 3062.00,797.00 Z
           M 853.00,1103.00
           C 853.00,1103.00 852.00,1103.00 852.00,1103.00
             852.00,1103.00 853.00,1104.00 853.00,1104.00
             853.00,1104.00 853.00,1103.00 853.00,1103.00 Z
           M 668.00,1274.00
           C 668.00,1274.00 669.00,1274.00 669.00,1274.00
             669.00,1274.00 668.00,1275.00 668.00,1275.00
             668.00,1275.00 668.00,1274.00 668.00,1274.00 Z
           M 2804.00,1359.00
           C 2804.00,1359.00 2805.00,1359.00 2805.00,1359.00
             2805.00,1359.00 2804.00,1360.00 2804.00,1360.00
             2804.00,1360.00 2804.00,1359.00 2804.00,1359.00 Z
           M 688.00,1362.00
           C 688.00,1362.00 689.00,1362.00 689.00,1362.00
             689.00,1362.00 688.00,1363.00 688.00,1363.00
             688.00,1363.00 688.00,1362.00 688.00,1362.00 Z
           M 2132.00,1578.00
           C 2132.94,1571.85 2136.24,1569.02 2139.66,1564.00
             2139.66,1564.00 2160.71,1535.00 2160.71,1535.00
             2160.71,1535.00 2171.55,1521.00 2171.55,1521.00
             2171.55,1521.00 2181.59,1507.01 2181.59,1507.01
             2181.59,1507.01 2187.20,1500.72 2187.20,1500.72
             2187.20,1500.72 2195.89,1488.00 2195.89,1488.00
             2195.89,1488.00 2243.58,1429.00 2243.58,1429.00
             2243.58,1429.00 2269.20,1398.01 2269.20,1398.01
             2271.58,1395.10 2277.60,1387.08 2281.09,1386.36
             2284.11,1385.73 2288.24,1387.82 2291.00,1389.00
             2291.00,1389.00 2313.00,1398.55 2313.00,1398.55
             2313.00,1398.55 2366.00,1419.02 2366.00,1419.02
             2366.00,1419.02 2373.00,1420.48 2373.00,1420.48
             2380.18,1422.53 2386.41,1425.92 2394.00,1427.00
             2393.52,1435.15 2388.93,1438.05 2383.72,1444.00
             2383.72,1444.00 2363.13,1466.96 2363.13,1466.96
             2363.13,1466.96 2356.36,1474.09 2356.36,1474.09
             2356.36,1474.09 2350.24,1482.28 2350.24,1482.28
             2350.24,1482.28 2286.00,1560.00 2286.00,1560.00
             2286.00,1560.00 2251.42,1605.00 2251.42,1605.00
             2251.42,1605.00 2234.62,1628.00 2234.62,1628.00
             2234.62,1628.00 2192.72,1685.00 2192.72,1685.00
             2192.72,1685.00 2157.77,1739.00 2157.77,1739.00
             2157.77,1739.00 2149.06,1752.00 2149.06,1752.00
             2149.06,1752.00 2116.14,1809.00 2116.14,1809.00
             2116.14,1809.00 2096.36,1845.00 2096.36,1845.00
             2096.36,1845.00 2087.69,1865.00 2087.69,1865.00
             2087.69,1865.00 2074.86,1892.00 2074.86,1892.00
             2074.86,1892.00 2065.80,1915.00 2065.80,1915.00
             2056.15,1939.54 2047.32,1964.40 2040.89,1990.00
             2040.89,1990.00 2038.67,2001.00 2038.67,2001.00
             2038.67,2001.00 2030.05,2043.00 2030.05,2043.00
             2030.05,2043.00 2030.05,2050.00 2030.05,2050.00
             2030.05,2050.00 2028.32,2057.00 2028.32,2057.00
             2028.32,2057.00 2027.00,2072.00 2027.00,2072.00
             2027.00,2072.00 2025.91,2093.00 2025.91,2093.00
             2025.91,2093.00 2025.18,2100.00 2025.18,2100.00
             2025.18,2100.00 2026.00,2110.00 2026.00,2110.00
             2026.03,2113.00 2026.86,2118.74 2022.87,2119.36
             2020.27,2119.77 2003.79,2114.46 2000.00,2113.42
             2000.00,2113.42 1980.00,2108.96 1980.00,2108.96
             1980.00,2108.96 1970.00,2105.75 1970.00,2105.75
             1970.00,2105.75 1956.00,2102.03 1956.00,2102.03
             1952.04,2100.87 1943.64,2100.01 1941.06,2098.26
             1936.07,2094.88 1936.03,2086.49 1936.00,2081.00
             1936.00,2081.00 1936.00,2050.00 1936.00,2050.00
             1936.00,2050.00 1938.83,2023.00 1938.83,2023.00
             1938.83,2023.00 1940.17,2002.00 1940.17,2002.00
             1940.17,2002.00 1942.57,1987.00 1942.57,1987.00
             1942.57,1987.00 1945.12,1968.00 1945.12,1968.00
             1945.12,1968.00 1947.79,1958.00 1947.79,1958.00
             1947.79,1958.00 1950.46,1944.00 1950.46,1944.00
             1950.46,1944.00 1952.45,1938.00 1952.45,1938.00
             1952.45,1938.00 1953.92,1929.00 1953.92,1929.00
             1953.92,1929.00 1958.80,1913.00 1958.80,1913.00
             1958.80,1913.00 1960.59,1905.00 1960.59,1905.00
             1960.59,1905.00 1966.80,1886.00 1966.80,1886.00
             1966.80,1886.00 1971.71,1870.00 1971.71,1870.00
             1971.71,1870.00 1988.86,1825.00 1988.86,1825.00
             1988.86,1825.00 2003.69,1792.00 2003.69,1792.00
             2003.69,1792.00 2015.48,1766.00 2015.48,1766.00
             2015.48,1766.00 2024.38,1750.00 2024.38,1750.00
             2024.38,1750.00 2028.35,1741.00 2028.35,1741.00
             2028.35,1741.00 2043.76,1714.00 2043.76,1714.00
             2043.76,1714.00 2050.67,1700.00 2050.67,1700.00
             2050.67,1700.00 2062.14,1682.00 2062.14,1682.00
             2062.14,1682.00 2070.53,1668.96 2070.53,1668.96
             2070.53,1668.96 2074.17,1662.00 2074.17,1662.00
             2074.17,1662.00 2088.94,1638.00 2088.94,1638.00
             2088.94,1638.00 2096.21,1628.04 2096.21,1628.04
             2096.21,1628.04 2104.22,1615.09 2104.22,1615.09
             2104.22,1615.09 2109.91,1606.99 2109.91,1606.99
             2109.91,1606.99 2124.49,1585.00 2124.49,1585.00
             2126.62,1582.07 2128.40,1578.88 2132.00,1578.00 Z
           M 749.00,1417.00
           C 749.00,1417.00 750.00,1417.00 750.00,1417.00
             750.00,1417.00 749.00,1418.00 749.00,1418.00
             749.00,1418.00 749.00,1417.00 749.00,1417.00 Z
           M 993.00,1434.00
           C 999.88,1434.73 1011.85,1443.25 1018.00,1447.33
             1018.00,1447.33 1060.00,1473.60 1060.00,1473.60
             1060.00,1473.60 1115.00,1505.57 1115.00,1505.57
             1115.00,1505.57 1140.70,1519.61 1140.70,1519.61
             1144.88,1523.27 1144.19,1525.64 1146.33,1529.58
             1146.33,1529.58 1149.97,1536.00 1149.97,1536.00
             1149.97,1536.00 1152.41,1543.00 1152.41,1543.00
             1152.41,1543.00 1161.52,1562.00 1161.52,1562.00
             1161.52,1562.00 1166.10,1570.00 1166.10,1570.00
             1166.10,1570.00 1170.32,1580.00 1170.32,1580.00
             1170.32,1580.00 1175.14,1589.00 1175.14,1589.00
             1175.14,1589.00 1186.38,1614.00 1186.38,1614.00
             1186.38,1614.00 1192.64,1626.00 1192.64,1626.00
             1192.64,1626.00 1200.37,1644.00 1200.37,1644.00
             1200.37,1644.00 1204.48,1651.00 1204.48,1651.00
             1204.48,1651.00 1207.36,1657.83 1207.36,1657.83
             1207.36,1657.83 1211.98,1666.00 1211.98,1666.00
             1211.98,1666.00 1214.95,1673.00 1214.95,1673.00
             1217.77,1679.47 1219.56,1679.16 1220.00,1687.00
             1220.00,1687.00 1223.00,1687.00 1223.00,1687.00
             1223.39,1691.11 1223.35,1692.71 1227.00,1695.00
             1227.00,1695.00 1227.00,1701.00 1227.00,1701.00
             1231.85,1702.75 1231.56,1707.45 1233.81,1712.00
             1233.81,1712.00 1239.69,1723.00 1239.69,1723.00
             1239.69,1723.00 1245.07,1735.00 1245.07,1735.00
             1245.07,1735.00 1249.37,1743.00 1249.37,1743.00
             1249.37,1743.00 1258.10,1759.09 1258.10,1759.09
             1258.10,1759.09 1260.91,1766.00 1260.91,1766.00
             1260.91,1766.00 1269.75,1783.00 1269.75,1783.00
             1269.75,1783.00 1272.15,1788.54 1272.15,1788.54
             1272.15,1788.54 1276.58,1795.09 1276.58,1795.09
             1276.58,1795.09 1279.50,1802.00 1279.50,1802.00
             1279.50,1802.00 1288.66,1820.91 1288.66,1820.91
             1288.66,1820.91 1294.12,1830.00 1294.12,1830.00
             1294.12,1830.00 1297.12,1837.00 1297.12,1837.00
             1297.12,1837.00 1300.90,1843.00 1300.90,1843.00
             1300.90,1843.00 1307.32,1856.00 1307.32,1856.00
             1307.32,1856.00 1313.41,1867.00 1313.41,1867.00
             1315.20,1870.90 1317.85,1873.80 1318.00,1878.00
             1321.33,1880.24 1326.47,1891.02 1327.00,1895.00
             1332.23,1898.58 1335.78,1909.20 1338.38,1915.00
             1338.38,1915.00 1344.01,1923.96 1344.01,1923.96
             1344.01,1923.96 1350.79,1937.00 1350.79,1937.00
             1350.79,1937.00 1366.82,1965.00 1366.82,1965.00
             1366.82,1965.00 1378.92,1989.00 1378.92,1989.00
             1378.92,1989.00 1387.52,2003.00 1387.52,2003.00
             1387.52,2003.00 1393.12,2014.01 1393.12,2014.01
             1393.12,2014.01 1399.75,2024.00 1399.75,2024.00
             1399.75,2024.00 1404.24,2032.17 1404.24,2032.17
             1408.19,2037.97 1410.90,2039.79 1413.00,2047.00
             1417.92,2048.13 1423.60,2057.99 1427.17,2062.00
             1427.17,2062.00 1441.09,2077.96 1441.09,2077.96
             1441.09,2077.96 1450.28,2086.18 1450.28,2086.18
             1450.28,2086.18 1463.96,2100.19 1463.96,2100.19
             1463.96,2100.19 1489.04,2122.12 1489.04,2122.12
             1489.04,2122.12 1513.00,2139.73 1513.00,2139.73
             1513.00,2139.73 1536.00,2156.58 1536.00,2156.58
             1536.00,2156.58 1568.00,2176.58 1568.00,2176.58
             1568.00,2176.58 1576.57,2182.49 1576.57,2182.49
             1576.57,2182.49 1582.01,2184.81 1582.01,2184.81
             1582.01,2184.81 1629.00,2211.52 1629.00,2211.52
             1634.67,2214.50 1648.86,2220.12 1652.00,2225.00
             1652.00,2225.00 1655.00,2224.00 1655.00,2224.00
             1659.88,2229.04 1665.30,2230.07 1671.00,2233.11
             1671.00,2233.11 1688.28,2242.28 1688.28,2242.28
             1688.28,2242.28 1704.00,2248.96 1704.00,2248.96
             1704.00,2248.96 1715.00,2254.40 1715.00,2254.40
             1715.00,2254.40 1720.91,2256.24 1720.91,2256.24
             1720.91,2256.24 1728.04,2259.84 1728.04,2259.84
             1728.04,2259.84 1744.00,2265.59 1744.00,2265.59
             1744.00,2265.59 1764.00,2274.05 1764.00,2274.05
             1764.00,2274.05 1773.83,2277.06 1773.83,2277.06
             1773.83,2277.06 1780.04,2279.87 1780.04,2279.87
             1780.04,2279.87 1785.91,2281.32 1785.91,2281.32
             1785.91,2281.32 1803.00,2287.61 1803.00,2287.61
             1803.00,2287.61 1816.00,2291.02 1816.00,2291.02
             1816.00,2291.02 1826.00,2294.64 1826.00,2294.64
             1826.00,2294.64 1840.00,2297.91 1840.00,2297.91
             1840.00,2297.91 1853.00,2301.47 1853.00,2301.47
             1853.00,2301.47 1861.00,2302.60 1861.00,2302.60
             1870.96,2304.99 1880.62,2307.87 1891.00,2308.00
             1905.91,2308.17 1905.37,2311.02 1918.00,2318.60
             1918.00,2318.60 1945.00,2334.77 1945.00,2334.77
             1945.00,2334.77 1955.00,2340.00 1955.00,2340.00
             1955.00,2340.00 1986.00,2356.79 1986.00,2356.79
             1986.00,2356.79 1994.00,2361.60 1994.00,2361.60
             1994.00,2361.60 2006.96,2367.10 2006.96,2367.10
             2006.96,2367.10 2013.17,2370.65 2013.17,2370.65
             2013.17,2370.65 2028.00,2377.00 2028.00,2377.00
             2025.93,2389.63 2007.32,2403.45 1997.00,2410.33
             1981.37,2420.76 1959.68,2430.62 1941.00,2433.56
             1941.00,2433.56 1932.00,2434.18 1932.00,2434.18
             1925.43,2434.97 1928.40,2435.98 1918.00,2436.00
             1918.00,2436.00 1900.00,2436.00 1900.00,2436.00
             1891.57,2435.96 1892.24,2434.84 1886.00,2434.08
             1886.00,2434.08 1871.00,2434.08 1871.00,2434.08
             1862.71,2433.90 1862.47,2432.12 1855.00,2431.00
             1836.17,2428.19 1818.27,2422.83 1800.00,2417.78
             1800.00,2417.78 1793.00,2416.37 1793.00,2416.37
             1793.00,2416.37 1780.00,2411.72 1780.00,2411.72
             1780.00,2411.72 1744.00,2399.94 1744.00,2399.94
             1744.00,2399.94 1728.00,2393.42 1728.00,2393.42
             1728.00,2393.42 1702.00,2383.23 1702.00,2383.23
             1702.00,2383.23 1695.00,2379.63 1695.00,2379.63
             1695.00,2379.63 1687.00,2376.80 1687.00,2376.80
             1687.00,2376.80 1670.00,2369.42 1670.00,2369.42
             1670.00,2369.42 1656.00,2363.68 1656.00,2363.68
             1656.00,2363.68 1645.00,2357.23 1645.00,2357.23
             1645.00,2357.23 1621.58,2345.20 1621.58,2345.20
             1621.58,2345.20 1613.00,2341.68 1613.00,2341.68
             1613.00,2341.68 1569.00,2317.85 1569.00,2317.85
             1569.00,2317.85 1546.00,2305.57 1546.00,2305.57
             1546.00,2305.57 1505.00,2280.00 1505.00,2280.00
             1505.00,2280.00 1493.00,2271.64 1493.00,2271.64
             1493.00,2271.64 1486.00,2267.62 1486.00,2267.62
             1486.00,2267.62 1463.00,2251.57 1463.00,2251.57
             1463.00,2251.57 1443.00,2235.92 1443.00,2235.92
             1438.69,2232.35 1435.82,2229.02 1430.00,2229.00
             1429.79,2224.69 1428.28,2222.85 1424.00,2222.00
             1422.75,2217.37 1416.32,2214.16 1412.00,2213.00
             1408.74,2206.11 1400.68,2199.83 1395.01,2194.72
             1395.01,2194.72 1373.61,2172.00 1373.61,2172.00
             1370.66,2168.43 1363.20,2157.83 1359.00,2157.00
             1358.26,2154.06 1355.96,2151.58 1354.34,2149.00
             1354.34,2149.00 1339.14,2128.00 1339.14,2128.00
             1327.59,2111.78 1317.85,2094.43 1308.30,2077.00
             1308.30,2077.00 1289.86,2043.00 1289.86,2043.00
             1289.86,2043.00 1284.31,2034.00 1284.31,2034.00
             1284.31,2034.00 1273.69,2013.00 1273.69,2013.00
             1273.69,2013.00 1250.31,1971.00 1250.31,1971.00
             1250.31,1971.00 1231.70,1935.00 1231.70,1935.00
             1231.70,1935.00 1219.22,1911.00 1219.22,1911.00
             1219.22,1911.00 1214.13,1902.00 1214.13,1902.00
             1214.13,1902.00 1210.01,1892.00 1210.01,1892.00
             1210.01,1892.00 1205.31,1884.00 1205.31,1884.00
             1205.31,1884.00 1196.11,1866.00 1196.11,1866.00
             1196.11,1866.00 1180.08,1834.00 1180.08,1834.00
             1180.08,1834.00 1175.26,1826.00 1175.26,1826.00
             1175.26,1826.00 1161.31,1797.00 1161.31,1797.00
             1161.31,1797.00 1151.94,1778.00 1151.94,1778.00
             1149.80,1773.94 1149.01,1770.48 1145.00,1768.00
             1144.83,1766.13 1144.75,1764.82 1144.15,1763.00
             1144.15,1763.00 1133.10,1740.00 1133.10,1740.00
             1130.86,1736.06 1129.87,1736.29 1127.70,1731.00
             1125.50,1725.63 1122.92,1716.05 1118.00,1713.00
             1117.80,1710.60 1117.55,1708.29 1116.74,1706.00
             1116.74,1706.00 1104.10,1680.00 1104.10,1680.00
             1102.18,1676.10 1100.63,1670.39 1097.00,1668.00
             1097.24,1660.78 1091.66,1654.85 1088.87,1648.66
             1088.87,1648.66 1087.54,1643.83 1087.54,1643.83
             1085.98,1639.04 1082.39,1631.45 1078.00,1629.00
             1077.90,1621.05 1074.31,1617.20 1071.28,1610.00
             1071.28,1610.00 1067.03,1600.00 1067.03,1600.00
             1067.03,1600.00 1061.51,1590.00 1061.51,1590.00
             1061.51,1590.00 1053.25,1571.00 1053.25,1571.00
             1053.25,1571.00 1047.73,1559.00 1047.73,1559.00
             1047.73,1559.00 1042.35,1549.00 1042.35,1549.00
             1042.35,1549.00 1039.13,1540.00 1039.13,1540.00
             1039.13,1540.00 1028.22,1515.00 1028.22,1515.00
             1028.22,1515.00 1012.58,1481.00 1012.58,1481.00
             1007.46,1469.21 995.17,1444.75 993.00,1434.00 Z
           M 795.00,1451.00
           C 795.00,1451.00 796.00,1451.00 796.00,1451.00
             796.00,1451.00 795.00,1452.00 795.00,1452.00
             795.00,1452.00 795.00,1451.00 795.00,1451.00 Z
           M 850.00,1488.00
           C 850.00,1488.00 851.00,1488.00 851.00,1488.00
             851.00,1488.00 850.00,1489.00 850.00,1489.00
             850.00,1489.00 850.00,1488.00 850.00,1488.00 Z
           M 877.00,1506.00
           C 877.00,1506.00 878.00,1506.00 878.00,1506.00
             878.00,1506.00 877.00,1507.00 877.00,1507.00
             877.00,1507.00 877.00,1506.00 877.00,1506.00 Z
           M 2949.00,1554.00
           C 2949.00,1554.00 2950.00,1554.00 2950.00,1554.00
             2950.00,1554.00 2949.00,1555.00 2949.00,1555.00
             2949.00,1555.00 2949.00,1554.00 2949.00,1554.00 Z
           M 2825.00,1622.00
           C 2825.00,1622.00 2826.00,1622.00 2826.00,1622.00
             2826.00,1622.00 2825.00,1623.00 2825.00,1623.00
             2825.00,1623.00 2825.00,1622.00 2825.00,1622.00 Z
           M 2494.00,1781.00
           C 2494.00,1781.00 2495.00,1781.00 2495.00,1781.00
             2495.00,1781.00 2494.00,1782.00 2494.00,1782.00
             2494.00,1782.00 2494.00,1781.00 2494.00,1781.00 Z
           M 1081.00,1798.00
           C 1081.00,1798.00 1082.00,1798.00 1082.00,1798.00
             1082.00,1798.00 1081.00,1799.00 1081.00,1799.00
             1081.00,1799.00 1081.00,1798.00 1081.00,1798.00 Z
           M 2602.00,1853.00
           C 2602.00,1853.00 2603.00,1853.00 2603.00,1853.00
             2603.00,1853.00 2602.00,1854.00 2602.00,1854.00
             2602.00,1854.00 2602.00,1853.00 2602.00,1853.00 Z
           M 2620.00,1864.00
           C 2620.00,1864.00 2621.00,1864.00 2621.00,1864.00
             2621.00,1864.00 2620.00,1865.00 2620.00,1865.00
             2620.00,1865.00 2620.00,1864.00 2620.00,1864.00 Z
           M 2719.00,1961.00
           C 2719.00,1961.00 2720.00,1961.00 2720.00,1961.00
             2720.00,1961.00 2719.00,1962.00 2719.00,1962.00
             2719.00,1962.00 2719.00,1961.00 2719.00,1961.00 Z
           M 2723.00,1968.00
           C 2723.00,1968.00 2724.00,1968.00 2724.00,1968.00
             2724.00,1968.00 2723.00,1969.00 2723.00,1969.00
             2723.00,1969.00 2723.00,1968.00 2723.00,1968.00 Z
           M 2684.00,2031.00
           C 2684.00,2031.00 2685.00,2031.00 2685.00,2031.00
             2685.00,2031.00 2684.00,2032.00 2684.00,2032.00
             2684.00,2032.00 2684.00,2031.00 2684.00,2031.00 Z
           M 1175.00,2034.00
           C 1175.00,2034.00 1176.00,2034.00 1176.00,2034.00
             1176.00,2034.00 1175.00,2035.00 1175.00,2035.00
             1175.00,2035.00 1175.00,2034.00 1175.00,2034.00 Z
           M 2648.00,2058.00
           C 2648.00,2058.00 2649.00,2058.00 2649.00,2058.00
             2649.00,2058.00 2648.00,2059.00 2648.00,2059.00
             2648.00,2059.00 2648.00,2058.00 2648.00,2058.00 Z
           M 2254.00,2193.00
           C 2254.00,2193.00 2255.00,2193.00 2255.00,2193.00
             2255.00,2193.00 2254.00,2194.00 2254.00,2194.00
             2254.00,2194.00 2254.00,2193.00 2254.00,2193.00 Z
           M 2324.00,2220.00
           C 2324.00,2220.00 2325.00,2220.00 2325.00,2220.00
             2325.00,2220.00 2324.00,2221.00 2324.00,2221.00
             2324.00,2221.00 2324.00,2220.00 2324.00,2220.00 Z
           M 2373.00,2242.00
           C 2373.00,2242.00 2374.00,2242.00 2374.00,2242.00
             2374.00,2242.00 2373.00,2243.00 2373.00,2243.00
             2373.00,2243.00 2373.00,2242.00 2373.00,2242.00 Z
           M 2408.00,2258.00
           C 2408.00,2258.00 2409.00,2258.00 2409.00,2258.00
             2409.00,2258.00 2408.00,2259.00 2408.00,2259.00
             2408.00,2259.00 2408.00,2258.00 2408.00,2258.00 Z
           M 1503.00,2382.00
           C 1503.00,2382.00 1504.00,2382.00 1504.00,2382.00
             1504.00,2382.00 1503.00,2383.00 1503.00,2383.00
             1503.00,2383.00 1503.00,2382.00 1503.00,2382.00 Z
           M 2630.00,2392.00
           C 2630.00,2392.00 2631.00,2392.00 2631.00,2392.00
             2631.00,2392.00 2630.00,2393.00 2630.00,2393.00
             2630.00,2393.00 2630.00,2392.00 2630.00,2392.00 Z
           M 2722.00,2478.00
           C 2722.00,2478.00 2723.00,2478.00 2723.00,2478.00
             2723.00,2478.00 2722.00,2479.00 2722.00,2479.00
             2722.00,2479.00 2722.00,2478.00 2722.00,2478.00 Z
           M 2730.00,2486.00
           C 2730.00,2486.00 2731.00,2486.00 2731.00,2486.00
             2731.00,2486.00 2730.00,2487.00 2730.00,2487.00
             2730.00,2487.00 2730.00,2486.00 2730.00,2486.00 Z
           M 1606.00,2571.00
           C 1606.00,2571.00 1607.00,2571.00 1607.00,2571.00
             1607.00,2571.00 1606.00,2572.00 1606.00,2572.00
             1606.00,2572.00 1606.00,2571.00 1606.00,2571.00 Z
           M 1939.00,2789.00
           C 1939.00,2789.00 1940.00,2789.00 1940.00,2789.00
             1940.00,2789.00 1939.00,2790.00 1939.00,2790.00
             1939.00,2790.00 1939.00,2789.00 1939.00,2789.00 Z" />
</svg>
