<?xml version="1.0" encoding="UTF-8" standalone="no"?>
<!DOCTYPE svg PUBLIC "-//W3C//DTD SVG 20010904//EN"
              "http://www.w3.org/TR/2001/REC-SVG-20010904/DTD/svg10.dtd">

<svg xmlns="http://www.w3.org/2000/svg"
     width="51.25in" height="54.6528in"
     viewBox="0 0 3690 3935">
  <path id="Seleção #1"
        fill="none" stroke="black" stroke-width="1"
        d="M 2442.16,379.00
           C 2442.32,380.03 2442.78,380.51 2442.16,381.74
             2441.71,383.32 2432.25,390.31 2430.17,392.27
             2430.17,392.27 2412.00,407.43 2412.00,407.43
             2412.00,407.43 2387.00,427.88 2387.00,427.88
             2387.00,427.88 2360.00,450.57 2360.00,450.57
             2360.00,450.57 2321.00,482.44 2321.00,482.44
             2321.00,482.44 2311.00,491.56 2311.00,491.56
             2311.00,491.56 2209.00,578.84 2209.00,578.84
             2209.00,578.84 2194.00,591.29 2194.00,591.29
             2194.00,591.29 2184.00,600.72 2184.00,600.72
             2184.00,600.72 2160.00,621.17 2160.00,621.17
             2160.00,621.17 2113.00,663.17 2113.00,663.17
             2113.00,663.17 2076.00,697.91 2076.00,697.91
             2076.00,697.91 2005.00,764.04 2005.00,764.04
             2005.00,764.04 1979.00,789.99 1979.00,789.99
             1979.00,789.99 1930.00,838.00 1930.00,838.00
             1930.00,838.00 1919.96,848.96 1919.96,848.96
             1919.96,848.96 1911.89,856.42 1911.89,856.42
             1911.89,856.42 1850.57,921.42 1850.57,921.42
             1850.57,921.42 1838.46,933.72 1838.46,933.72
             1838.46,933.72 1828.83,945.00 1828.83,945.00
             1828.83,945.00 1806.17,969.00 1806.17,969.00
             1806.17,969.00 1730.08,1057.00 1730.08,1057.00
             1730.08,1057.00 1719.92,1070.00 1719.92,1070.00
             1719.92,1070.00 1709.46,1082.00 1709.46,1082.00
             1709.46,1082.00 1685.00,1113.00 1685.00,1113.00
             1685.00,1113.00 1659.67,1145.00 1659.67,1145.00
             1659.67,1145.00 1655.05,1151.72 1655.05,1151.72
             1655.05,1151.72 1640.89,1169.00 1640.89,1169.00
             1640.89,1169.00 1629.84,1185.00 1629.84,1185.00
             1629.84,1185.00 1621.79,1195.00 1621.79,1195.00
             1621.79,1195.00 1616.78,1203.00 1616.78,1203.00
             1616.78,1203.00 1598.65,1229.00 1598.65,1229.00
             1598.65,1229.00 1573.86,1265.00 1573.86,1265.00
             1573.86,1265.00 1546.91,1308.00 1546.91,1308.00
             1546.91,1308.00 1536.86,1325.00 1536.86,1325.00
             1532.59,1331.72 1528.09,1343.45 1521.00,1347.00
             1521.00,1347.00 1507.09,1314.00 1507.09,1314.00
             1507.09,1314.00 1503.55,1304.00 1503.55,1304.00
             1503.55,1304.00 1497.58,1291.00 1497.58,1291.00
             1497.58,1291.00 1474.55,1234.00 1474.55,1234.00
             1474.55,1234.00 1469.92,1224.00 1469.92,1224.00
             1469.92,1224.00 1465.08,1211.00 1465.08,1211.00
             1465.08,1211.00 1460.45,1201.00 1460.45,1201.00
             1460.45,1201.00 1439.45,1149.00 1439.45,1149.00
             1439.45,1149.00 1427.69,1118.00 1427.69,1118.00
             1427.69,1118.00 1415.45,1089.00 1415.45,1089.00
             1415.45,1089.00 1404.08,1059.00 1404.08,1059.00
             1404.08,1059.00 1388.45,1021.00 1388.45,1021.00
             1388.45,1021.00 1384.19,1009.00 1384.19,1009.00
             1384.19,1009.00 1372.47,979.00 1372.47,979.00
             1372.47,979.00 1367.64,968.00 1367.64,968.00
             1367.64,968.00 1365.54,961.00 1365.54,961.00
             1365.54,961.00 1358.91,945.00 1358.91,945.00
             1358.91,945.00 1355.91,936.00 1355.91,936.00
             1355.91,936.00 1343.06,904.00 1343.06,904.00
             1343.06,904.00 1330.68,871.00 1330.68,871.00
             1330.68,871.00 1322.44,851.00 1322.44,851.00
             1322.44,851.00 1314.94,831.00 1314.94,831.00
             1314.94,831.00 1310.63,818.00 1310.63,818.00
             1310.63,818.00 1306.83,810.00 1306.83,810.00
             1306.83,810.00 1293.08,773.00 1293.08,773.00
             1293.08,773.00 1288.66,763.00 1288.66,763.00
             1288.66,763.00 1271.46,718.00 1271.46,718.00
             1271.46,718.00 1259.03,686.00 1259.03,686.00
             1247.31,662.56 1229.98,647.00 1211.00,629.83
             1211.00,629.83 1201.00,620.67 1201.00,620.67
             1201.00,620.67 1159.00,589.21 1159.00,589.21
             1159.00,589.21 1127.00,565.88 1127.00,565.88
             1122.58,562.52 1116.81,559.50 1115.00,554.00
             1121.31,556.01 1127.24,561.19 1133.00,564.69
             1133.00,564.69 1144.00,571.04 1144.00,571.04
             1144.00,571.04 1153.00,578.24 1153.00,578.24
             1153.00,578.24 1189.00,604.28 1189.00,604.28
             1189.00,604.28 1199.00,610.92 1199.00,610.92
             1199.00,610.92 1211.00,620.79 1211.00,620.79
             1211.00,620.79 1242.00,645.81 1242.00,645.81
             1242.00,645.81 1248.83,651.21 1248.83,651.21
             1248.83,651.21 1255.04,658.00 1255.04,658.00
             1269.58,673.28 1277.77,683.17 1289.09,700.99
             1297.72,714.57 1308.57,745.72 1314.71,762.00
             1314.71,762.00 1328.94,798.00 1328.94,798.00
             1328.94,798.00 1338.75,825.00 1338.75,825.00
             1338.75,825.00 1344.09,837.00 1344.09,837.00
             1344.09,837.00 1353.42,863.00 1353.42,863.00
             1353.42,863.00 1367.69,899.00 1367.69,899.00
             1367.69,899.00 1378.59,929.00 1378.59,929.00
             1378.59,929.00 1397.09,975.00 1397.09,975.00
             1397.09,975.00 1400.16,985.00 1400.16,985.00
             1400.16,985.00 1405.86,997.00 1405.86,997.00
             1405.86,997.00 1407.98,1004.00 1407.98,1004.00
             1407.98,1004.00 1411.34,1011.00 1411.34,1011.00
             1411.34,1011.00 1413.46,1018.00 1413.46,1018.00
             1413.46,1018.00 1426.71,1052.00 1426.71,1052.00
             1426.71,1052.00 1431.54,1063.00 1431.54,1063.00
             1431.54,1063.00 1447.49,1104.00 1447.49,1104.00
             1447.49,1104.00 1475.17,1174.00 1475.17,1174.00
             1475.17,1174.00 1480.36,1185.17 1480.36,1185.17
             1480.36,1185.17 1488.45,1207.00 1488.45,1207.00
             1488.45,1207.00 1503.54,1243.00 1503.54,1243.00
             1503.54,1243.00 1518.65,1281.00 1518.65,1281.00
             1519.77,1283.64 1522.52,1292.92 1524.43,1293.99
             1529.15,1296.62 1535.45,1286.17 1537.49,1283.00
             1537.49,1283.00 1549.78,1264.00 1549.78,1264.00
             1549.78,1264.00 1569.06,1236.28 1569.06,1236.28
             1569.06,1236.28 1581.41,1220.00 1581.41,1220.00
             1581.41,1220.00 1587.78,1210.00 1587.78,1210.00
             1587.78,1210.00 1613.53,1176.00 1613.53,1176.00
             1613.53,1176.00 1622.63,1163.00 1622.63,1163.00
             1622.63,1163.00 1629.48,1155.00 1629.48,1155.00
             1629.48,1155.00 1651.90,1125.17 1651.90,1125.17
             1651.90,1125.17 1657.71,1118.96 1657.71,1118.96
             1657.71,1118.96 1667.54,1107.00 1667.54,1107.00
             1667.54,1107.00 1695.61,1072.04 1695.61,1072.04
             1695.61,1072.04 1701.63,1065.83 1701.63,1065.83
             1701.63,1065.83 1717.58,1047.00 1717.58,1047.00
             1717.58,1047.00 1781.83,974.00 1781.83,974.00
             1781.83,974.00 1790.17,964.00 1790.17,964.00
             1790.17,964.00 1804.91,949.00 1804.91,949.00
             1804.91,949.00 1821.09,931.00 1821.09,931.00
             1821.09,931.00 1864.04,886.00 1864.04,886.00
             1864.04,886.00 1912.00,838.00 1912.00,838.00
             1912.00,838.00 1992.99,758.90 1992.99,758.90
             1992.99,758.90 2004.17,747.58 2004.17,747.58
             2004.17,747.58 2021.73,731.96 2021.73,731.96
             2021.73,731.96 2036.09,717.84 2036.09,717.84
             2036.09,717.84 2055.00,700.91 2055.00,700.91
             2055.00,700.91 2091.00,667.91 2091.00,667.91
             2091.00,667.91 2113.09,647.31 2113.09,647.31
             2113.09,647.31 2120.00,641.82 2120.00,641.82
             2120.00,641.82 2140.00,623.17 2140.00,623.17
             2140.00,623.17 2153.00,612.71 2153.00,612.71
             2153.00,612.71 2204.00,568.70 2204.00,568.70
             2204.00,568.70 2239.28,537.59 2239.28,537.59
             2239.28,537.59 2280.00,503.92 2280.00,503.92
             2280.00,503.92 2306.00,481.27 2306.00,481.27
             2306.00,481.27 2318.00,471.75 2318.00,471.75
             2318.00,471.75 2329.17,461.40 2329.17,461.40
             2329.17,461.40 2338.99,454.41 2338.99,454.41
             2338.99,454.41 2346.17,447.75 2346.17,447.75
             2346.17,447.75 2362.00,435.54 2362.00,435.54
             2362.00,435.54 2393.00,410.00 2393.00,410.00
             2400.63,403.91 2412.11,393.39 2420.00,388.59
             2420.00,388.59 2442.16,379.00 2442.16,379.00 Z
           M 1120.00,1322.00
           C 1120.00,1322.00 1110.00,1318.18 1110.00,1318.18
             1110.00,1318.18 1054.00,1286.10 1054.00,1286.10
             1048.33,1282.56 1037.15,1277.99 1032.56,1273.25
             1030.44,1271.07 1024.43,1253.96 1022.99,1250.01
             1022.99,1250.01 1017.78,1239.00 1017.78,1239.00
             1017.78,1239.00 1007.06,1213.00 1007.06,1213.00
             1007.06,1213.00 1000.30,1198.00 1000.30,1198.00
             1000.30,1198.00 990.87,1176.00 990.87,1176.00
             990.87,1176.00 980.71,1151.00 980.71,1151.00
             980.71,1151.00 971.46,1131.00 971.46,1131.00
             971.46,1131.00 968.39,1121.00 968.39,1121.00
             968.39,1121.00 962.42,1108.00 962.42,1108.00
             962.42,1108.00 958.02,1096.00 958.02,1096.00
             958.02,1096.00 953.22,1087.00 953.22,1087.00
             953.22,1087.00 950.79,1078.00 950.79,1078.00
             950.79,1078.00 942.33,1059.00 942.33,1059.00
             942.33,1059.00 923.37,1011.00 923.37,1011.00
             923.37,1011.00 919.92,1004.00 919.92,1004.00
             919.92,1004.00 912.55,984.00 912.55,984.00
             912.55,984.00 905.32,968.00 905.32,968.00
             905.32,968.00 892.55,934.00 892.55,934.00
             892.55,934.00 887.77,924.00 887.77,924.00
             887.77,924.00 879.94,903.00 879.94,903.00
             879.94,903.00 873.31,887.00 873.31,887.00
             873.31,887.00 870.05,877.00 870.05,877.00
             870.05,877.00 864.09,865.00 864.09,865.00
             864.09,865.00 858.69,849.00 858.69,849.00
             858.69,849.00 850.55,828.00 850.55,828.00
             850.55,828.00 846.46,819.00 846.46,819.00
             846.46,819.00 843.49,810.00 843.49,810.00
             843.49,810.00 827.55,769.00 827.55,769.00
             827.55,769.00 823.09,758.00 823.09,758.00
             823.09,758.00 819.52,751.00 819.52,751.00
             819.52,751.00 817.90,745.00 817.90,745.00
             817.90,745.00 810.69,727.00 810.69,727.00
             810.69,727.00 799.55,697.00 799.55,697.00
             799.55,697.00 793.46,682.72 793.46,682.72
             793.46,682.72 783.51,657.00 783.51,657.00
             783.51,657.00 779.09,644.00 779.09,644.00
             779.09,644.00 766.41,612.72 766.41,612.72
             766.41,612.72 761.14,596.00 761.14,596.00
             761.14,596.00 754.31,580.00 754.31,580.00
             754.31,580.00 750.72,570.00 750.72,570.00
             750.72,570.00 736.30,532.01 736.30,532.01
             736.30,532.01 733.29,525.72 733.29,525.72
             733.29,525.72 729.41,515.00 729.41,515.00
             729.41,515.00 725.54,507.00 725.54,507.00
             725.54,507.00 723.87,499.00 723.87,499.00
             718.88,478.08 719.93,459.04 734.74,442.09
             739.75,436.35 742.61,434.71 749.01,430.96
             757.56,425.96 761.36,425.20 771.00,423.00
             769.83,426.35 766.51,433.16 766.38,436.00
             766.13,441.68 771.30,453.38 773.31,459.00
             773.31,459.00 785.51,492.00 785.51,492.00
             785.51,492.00 793.46,511.00 793.46,511.00
             793.46,511.00 817.58,574.00 817.58,574.00
             817.58,574.00 830.45,609.00 830.45,609.00
             830.45,609.00 834.80,618.00 834.80,618.00
             834.80,618.00 839.88,633.00 839.88,633.00
             839.88,633.00 857.73,679.00 857.73,679.00
             857.73,679.00 874.91,723.00 874.91,723.00
             874.91,723.00 883.50,745.00 883.50,745.00
             883.50,745.00 890.09,761.00 890.09,761.00
             890.09,761.00 904.69,800.00 904.69,800.00
             904.69,800.00 911.32,816.00 911.32,816.00
             911.32,816.00 918.23,833.00 918.23,833.00
             919.17,836.05 918.72,838.86 922.00,840.00
             922.67,847.86 924.32,848.16 927.04,855.00
             927.04,855.00 937.58,882.00 937.58,882.00
             937.58,882.00 977.46,980.00 977.46,980.00
             977.46,980.00 985.54,999.00 985.54,999.00
             985.54,999.00 990.23,1012.00 990.23,1012.00
             992.55,1017.10 996.94,1023.50 996.00,1029.00
             997.22,1029.93 997.38,1029.79 998.22,1031.29
             998.22,1031.29 1005.00,1048.00 1005.00,1048.00
             1005.00,1048.00 1025.85,1098.00 1025.85,1098.00
             1025.85,1098.00 1034.92,1119.00 1034.92,1119.00
             1034.92,1119.00 1043.33,1141.00 1043.33,1141.00
             1043.33,1141.00 1053.65,1162.00 1053.65,1162.00
             1053.65,1162.00 1056.35,1171.00 1056.35,1171.00
             1056.35,1171.00 1075.15,1215.00 1075.15,1215.00
             1075.15,1215.00 1090.47,1251.00 1090.47,1251.00
             1090.47,1251.00 1111.86,1299.00 1111.86,1299.00
             1114.64,1305.24 1120.37,1315.31 1120.00,1322.00 Z
           M 2746.00,486.00
           C 2746.00,486.00 2765.00,496.47 2765.00,496.47
             2765.00,496.47 2801.00,519.67 2801.00,519.67
             2801.00,519.67 2822.00,533.00 2822.00,533.00
             2822.00,533.00 2821.00,535.00 2821.00,535.00
             2826.83,536.93 2835.83,544.08 2841.00,547.97
             2841.00,547.97 2868.00,567.99 2868.00,567.99
             2901.66,594.02 2939.17,621.88 2963.80,657.00
             2970.82,667.01 2977.92,677.67 2979.93,690.00
             2979.93,690.00 2979.93,698.00 2979.93,698.00
             2980.84,704.97 2981.17,712.20 2978.90,719.00
             2972.28,738.79 2964.95,742.79 2950.00,755.42
             2950.00,755.42 2928.00,773.51 2928.00,773.51
             2928.00,773.51 2905.00,792.72 2905.00,792.72
             2905.00,792.72 2893.00,802.28 2893.00,802.28
             2893.00,802.28 2880.42,813.49 2880.42,813.49
             2880.42,813.49 2872.00,819.43 2872.00,819.43
             2872.00,819.43 2831.00,853.44 2831.00,853.44
             2831.00,853.44 2758.00,915.71 2758.00,915.71
             2758.00,915.71 2741.00,929.29 2741.00,929.29
             2741.00,929.29 2728.00,941.87 2728.00,941.87
             2728.00,941.87 2714.00,953.28 2714.00,953.28
             2714.00,953.28 2699.00,966.83 2699.00,966.83
             2699.00,966.83 2691.09,973.29 2691.09,973.29
             2691.09,973.29 2684.91,979.39 2684.91,979.39
             2684.91,979.39 2672.02,990.08 2672.02,990.08
             2672.02,990.08 2665.58,996.17 2665.58,996.17
             2665.58,996.17 2658.00,1002.17 2658.00,1002.17
             2658.00,1002.17 2634.83,1023.81 2634.83,1023.81
             2634.83,1023.81 2629.28,1028.37 2629.28,1028.37
             2629.28,1028.37 2622.00,1035.91 2622.00,1035.91
             2622.00,1035.91 2612.04,1044.16 2612.04,1044.16
             2612.04,1044.16 2583.72,1070.88 2583.72,1070.88
             2583.72,1070.88 2577.17,1076.17 2577.17,1076.17
             2577.17,1076.17 2562.04,1090.83 2562.04,1090.83
             2562.04,1090.83 2540.91,1110.85 2540.91,1110.85
             2540.91,1110.85 2529.18,1121.28 2529.18,1121.28
             2529.18,1121.28 2523.68,1127.42 2523.68,1127.42
             2523.68,1127.42 2512.17,1138.28 2512.17,1138.28
             2512.17,1138.28 2482.00,1167.85 2482.00,1167.85
             2476.40,1172.52 2471.16,1169.36 2465.00,1167.14
             2465.00,1167.14 2452.00,1161.55 2452.00,1161.55
             2452.00,1161.55 2425.00,1150.68 2425.00,1150.68
             2421.16,1149.24 2407.69,1145.93 2409.62,1140.25
             2410.35,1138.11 2416.16,1132.84 2418.00,1131.00
             2418.00,1131.00 2436.95,1111.95 2436.95,1111.95
             2436.95,1111.95 2499.00,1050.04 2499.00,1050.04
             2499.00,1050.04 2510.01,1039.96 2510.01,1039.96
             2510.01,1039.96 2587.83,967.92 2587.83,967.92
             2587.83,967.92 2596.29,959.37 2596.29,959.37
             2596.29,959.37 2603.00,953.90 2603.00,953.90
             2603.00,953.90 2681.00,884.29 2681.00,884.29
             2681.00,884.29 2708.00,861.79 2708.00,861.79
             2708.00,861.79 2717.00,853.29 2717.00,853.29
             2717.00,853.29 2751.00,824.71 2751.00,824.71
             2751.00,824.71 2768.00,809.30 2768.00,809.30
             2768.00,809.30 2809.00,775.00 2809.00,775.00
             2809.00,775.00 2857.00,735.54 2857.00,735.54
             2857.00,735.54 2910.00,691.59 2910.00,691.59
             2910.00,691.59 2927.00,677.45 2927.00,677.45
             2934.09,671.77 2941.70,667.22 2941.00,657.00
             2940.60,651.07 2936.88,644.88 2933.64,640.00
             2927.26,630.37 2918.17,620.17 2910.00,612.00
             2884.17,586.16 2827.18,543.06 2796.00,522.20
             2796.00,522.20 2762.00,499.28 2762.00,499.28
             2757.04,496.40 2747.84,491.48 2746.00,486.00 Z
           M 983.00,694.46
           C 990.29,693.46 995.95,695.00 1003.00,696.58
             1016.78,699.66 1035.10,706.50 1048.00,712.38
             1074.91,724.67 1116.40,747.19 1140.99,763.44
             1140.99,763.44 1170.00,784.44 1170.00,784.44
             1181.09,792.40 1192.31,800.34 1202.00,810.00
             1207.02,815.01 1212.26,820.26 1214.88,827.00
             1217.81,834.50 1216.91,842.12 1217.00,850.00
             1217.08,856.47 1217.91,857.29 1218.72,863.00
             1218.72,863.00 1227.51,911.00 1227.51,911.00
             1227.51,911.00 1233.52,933.00 1233.52,933.00
             1233.52,933.00 1239.22,954.00 1239.22,954.00
             1239.22,954.00 1248.66,980.00 1248.66,980.00
             1248.66,980.00 1252.40,993.00 1252.40,993.00
             1252.40,993.00 1255.78,1000.00 1255.78,1000.00
             1255.78,1000.00 1260.54,1012.00 1260.54,1012.00
             1260.54,1012.00 1274.99,1050.00 1274.99,1050.00
             1274.99,1050.00 1282.14,1069.00 1282.14,1069.00
             1282.91,1071.69 1284.18,1075.19 1283.45,1077.96
             1282.40,1081.93 1278.72,1083.75 1275.00,1084.72
             1273.06,1084.92 1270.97,1085.02 1269.00,1084.72
             1250.53,1083.86 1214.60,1070.95 1197.00,1063.56
             1197.00,1063.56 1169.00,1051.89 1169.00,1051.89
             1169.00,1051.89 1158.00,1045.40 1158.00,1045.40
             1158.00,1045.40 1151.00,1042.68 1151.00,1042.68
             1151.00,1042.68 1141.00,1037.26 1141.00,1037.26
             1141.00,1037.26 1129.00,1031.68 1129.00,1031.68
             1114.35,1023.99 1100.35,1014.90 1087.00,1005.15
             1074.70,996.17 1055.96,981.07 1047.16,969.00
             1036.73,954.70 1033.40,942.59 1026.99,927.00
             1026.99,927.00 999.69,855.00 999.69,855.00
             999.69,855.00 995.41,841.00 995.41,841.00
             995.41,841.00 990.52,828.00 990.52,828.00
             981.56,800.54 972.90,764.68 970.04,736.00
             970.04,736.00 970.04,727.00 970.04,727.00
             970.04,727.00 969.00,710.00 969.00,710.00
             969.05,706.36 969.26,702.22 971.70,699.27
             974.18,696.28 979.35,695.27 983.00,694.46 Z
           M 1290.00,1579.00
           C 1298.50,1576.59 1302.85,1579.64 1311.00,1580.87
             1311.00,1580.87 1328.00,1583.71 1328.00,1583.71
             1328.00,1583.71 1345.00,1585.08 1345.00,1585.08
             1345.00,1585.08 1355.00,1586.04 1355.00,1586.04
             1355.00,1586.04 1366.00,1586.04 1366.00,1586.04
             1366.00,1586.04 1373.58,1587.09 1373.58,1587.09
             1376.68,1587.14 1387.32,1585.25 1389.99,1583.72
             1401.56,1577.11 1399.01,1563.10 1394.36,1553.00
             1388.24,1539.71 1382.45,1528.64 1373.32,1517.00
             1373.32,1517.00 1364.44,1507.91 1364.44,1507.91
             1364.44,1507.91 1351.79,1493.28 1351.79,1493.28
             1351.79,1493.28 1327.00,1469.91 1327.00,1469.91
             1327.00,1469.91 1308.00,1452.21 1308.00,1452.21
             1308.00,1452.21 1298.83,1445.49 1298.83,1445.49
             1298.83,1445.49 1287.00,1435.53 1287.00,1435.53
             1287.00,1435.53 1278.17,1430.16 1278.17,1430.16
             1278.17,1430.16 1269.00,1422.51 1269.00,1422.51
             1269.00,1422.51 1233.72,1397.59 1233.72,1397.59
             1228.85,1393.96 1222.40,1392.12 1218.72,1386.90
             1216.86,1384.25 1216.01,1379.26 1214.97,1376.00
             1214.97,1376.00 1208.43,1357.00 1208.43,1357.00
             1208.43,1357.00 1188.51,1294.00 1188.51,1294.00
             1188.51,1294.00 1182.59,1279.00 1182.59,1279.00
             1182.59,1279.00 1176.96,1259.00 1176.96,1259.00
             1176.96,1259.00 1171.56,1244.00 1171.56,1244.00
             1169.81,1238.58 1166.81,1228.12 1171.56,1223.43
             1175.68,1219.10 1181.78,1220.53 1187.00,1220.91
             1204.28,1222.17 1213.97,1227.01 1230.00,1232.19
             1265.19,1243.56 1312.03,1267.62 1344.00,1286.69
             1358.05,1295.08 1385.16,1313.17 1395.39,1325.04
             1414.85,1347.61 1418.31,1361.33 1426.21,1389.00
             1426.21,1389.00 1429.84,1398.00 1429.84,1398.00
             1429.84,1398.00 1436.59,1422.00 1436.59,1422.00
             1436.59,1422.00 1441.65,1436.00 1441.65,1436.00
             1441.65,1436.00 1480.36,1558.00 1480.36,1558.00
             1480.36,1558.00 1486.26,1576.00 1486.26,1576.00
             1486.26,1576.00 1488.54,1585.00 1488.54,1585.00
             1488.54,1585.00 1497.46,1608.00 1497.46,1608.00
             1497.46,1608.00 1509.09,1642.00 1509.09,1642.00
             1509.09,1642.00 1515.09,1658.00 1515.09,1658.00
             1515.09,1658.00 1518.35,1665.00 1518.35,1665.00
             1518.35,1665.00 1544.81,1730.00 1544.81,1730.00
             1544.81,1730.00 1554.31,1754.00 1554.31,1754.00
             1554.31,1754.00 1566.10,1778.00 1566.10,1778.00
             1566.10,1778.00 1568.94,1786.00 1568.94,1786.00
             1568.94,1786.00 1577.74,1802.00 1577.74,1802.00
             1577.74,1802.00 1609.32,1859.00 1609.32,1859.00
             1609.32,1859.00 1614.26,1866.00 1614.26,1866.00
             1623.56,1879.98 1632.16,1894.35 1643.28,1907.00
             1643.28,1907.00 1667.69,1933.00 1667.69,1933.00
             1667.69,1933.00 1671.58,1939.96 1671.58,1939.96
             1673.58,1942.78 1676.08,1943.91 1678.00,1947.00
             1685.01,1947.60 1692.80,1954.58 1699.00,1958.06
             1717.39,1968.37 1748.97,1992.91 1762.24,2009.00
             1770.71,2019.26 1776.60,2035.06 1760.00,2041.03
             1757.37,2041.98 1754.77,2042.07 1752.00,2041.96
             1748.05,2041.81 1743.90,2040.77 1740.00,2040.00
             1720.66,2036.19 1710.76,2031.88 1693.00,2023.77
             1693.00,2023.77 1652.00,2004.05 1652.00,2004.05
             1652.00,2004.05 1639.00,1995.45 1639.00,1995.45
             1639.00,1995.45 1630.00,1990.55 1630.00,1990.55
             1630.00,1990.55 1620.83,1984.80 1620.83,1984.80
             1620.83,1984.80 1615.00,1982.01 1615.00,1982.01
             1615.00,1982.01 1607.00,1976.62 1607.00,1976.62
             1607.00,1976.62 1597.00,1971.05 1597.00,1971.05
             1597.00,1971.05 1577.00,1957.02 1577.00,1957.02
             1577.00,1957.02 1556.00,1942.52 1556.00,1942.52
             1509.85,1908.36 1461.27,1860.84 1425.45,1816.00
             1425.45,1816.00 1394.98,1774.00 1394.98,1774.00
             1394.98,1774.00 1381.02,1754.00 1381.02,1754.00
             1381.02,1754.00 1375.15,1744.00 1375.15,1744.00
             1375.15,1744.00 1367.55,1733.96 1367.55,1733.96
             1367.55,1733.96 1361.40,1722.00 1361.40,1722.00
             1361.40,1722.00 1351.41,1707.00 1351.41,1707.00
             1351.41,1707.00 1347.89,1699.00 1347.89,1699.00
             1347.89,1699.00 1342.90,1691.00 1342.90,1691.00
             1342.90,1691.00 1311.04,1627.00 1311.04,1627.00
             1306.04,1616.83 1292.26,1588.63 1290.00,1579.00 Z
           M 2216.61,1354.04
           C 2221.80,1352.52 2227.55,1356.86 2232.00,1359.30
             2232.00,1359.30 2266.00,1377.00 2266.00,1377.00
             2270.33,1378.86 2279.28,1381.67 2276.78,1388.00
             2276.78,1388.00 2264.00,1404.00 2264.00,1404.00
             2264.00,1404.00 2233.32,1441.00 2233.32,1441.00
             2233.32,1441.00 2186.39,1501.00 2186.39,1501.00
             2186.39,1501.00 2174.50,1516.00 2174.50,1516.00
             2174.50,1516.00 2141.91,1560.00 2141.91,1560.00
             2141.91,1560.00 2113.20,1601.00 2113.20,1601.00
             2113.20,1601.00 2107.97,1609.72 2107.97,1609.72
             2107.97,1609.72 2098.20,1623.42 2098.20,1623.42
             2098.20,1623.42 2094.53,1630.00 2094.53,1630.00
             2094.53,1630.00 2088.52,1638.00 2088.52,1638.00
             2088.52,1638.00 2069.80,1669.00 2069.80,1669.00
             2069.80,1669.00 2047.43,1705.00 2047.43,1705.00
             2047.43,1705.00 2042.20,1716.00 2042.20,1716.00
             2042.20,1716.00 2026.90,1743.00 2026.90,1743.00
             2026.90,1743.00 2023.77,1750.00 2023.77,1750.00
             2023.77,1750.00 2010.97,1774.00 2010.97,1774.00
             2010.97,1774.00 2002.12,1794.00 2002.12,1794.00
             2002.12,1794.00 1979.46,1847.00 1979.46,1847.00
             1979.46,1847.00 1969.09,1876.00 1969.09,1876.00
             1969.09,1876.00 1966.91,1884.00 1966.91,1884.00
             1966.91,1884.00 1952.89,1931.00 1952.89,1931.00
             1952.89,1931.00 1946.77,1960.00 1946.77,1960.00
             1946.77,1960.00 1944.22,1968.00 1944.22,1968.00
             1944.22,1968.00 1943.70,1975.00 1943.70,1975.00
             1943.70,1975.00 1939.94,1997.00 1939.94,1997.00
             1939.94,1997.00 1939.94,2007.00 1939.94,2007.00
             1939.94,2007.00 1937.00,2026.00 1937.00,2026.00
             1937.00,2026.00 1937.00,2037.00 1937.00,2037.00
             1937.00,2037.00 1935.00,2057.00 1935.00,2057.00
             1935.00,2057.00 1935.91,2085.00 1935.91,2085.00
             1936.08,2087.35 1936.85,2093.73 1935.31,2095.39
             1932.86,2098.03 1925.31,2094.85 1922.00,2094.28
             1922.00,2094.28 1909.00,2091.31 1909.00,2091.31
             1906.68,2090.86 1903.41,2090.83 1901.59,2089.15
             1898.87,2086.63 1898.01,2072.02 1898.00,2068.00
             1898.00,2068.00 1898.00,2064.00 1898.00,2064.00
             1897.91,2056.55 1896.76,2056.54 1896.17,2051.00
             1896.17,2051.00 1895.00,2029.00 1895.00,2029.00
             1895.00,2029.00 1895.00,2016.00 1895.00,2016.00
             1895.00,2016.00 1896.00,1998.00 1896.00,1998.00
             1896.09,1990.55 1897.24,1990.54 1897.83,1985.00
             1897.83,1985.00 1899.17,1963.00 1899.17,1963.00
             1899.17,1963.00 1901.71,1948.00 1901.71,1948.00
             1901.71,1948.00 1902.30,1935.00 1902.30,1935.00
             1902.30,1935.00 1904.68,1925.00 1904.68,1925.00
             1904.68,1925.00 1905.46,1917.00 1905.46,1917.00
             1905.46,1917.00 1908.19,1906.00 1908.19,1906.00
             1908.19,1906.00 1909.51,1898.00 1909.51,1898.00
             1909.51,1898.00 1911.68,1890.00 1911.68,1890.00
             1911.68,1890.00 1912.53,1883.00 1912.53,1883.00
             1912.53,1883.00 1917.71,1866.00 1917.71,1866.00
             1917.71,1866.00 1921.91,1849.00 1921.91,1849.00
             1921.91,1849.00 1935.42,1809.00 1935.42,1809.00
             1935.42,1809.00 1954.17,1759.00 1954.17,1759.00
             1954.17,1759.00 1965.69,1734.83 1965.69,1734.83
             1965.69,1734.83 1977.11,1709.00 1977.11,1709.00
             1977.11,1709.00 1984.58,1695.00 1984.58,1695.00
             1984.58,1695.00 2002.12,1660.00 2002.12,1660.00
             2002.12,1660.00 2020.00,1629.00 2020.00,1629.00
             2020.00,1629.00 2028.43,1614.00 2028.43,1614.00
             2028.43,1614.00 2037.34,1601.00 2037.34,1601.00
             2037.34,1601.00 2041.12,1594.00 2041.12,1594.00
             2041.12,1594.00 2057.40,1568.00 2057.40,1568.00
             2057.40,1568.00 2069.78,1550.96 2069.78,1550.96
             2069.78,1550.96 2080.52,1534.00 2080.52,1534.00
             2080.52,1534.00 2115.11,1485.00 2115.11,1485.00
             2115.11,1485.00 2131.04,1463.00 2131.04,1463.00
             2131.04,1463.00 2158.63,1427.00 2158.63,1427.00
             2158.63,1427.00 2162.49,1421.00 2162.49,1421.00
             2162.49,1421.00 2170.33,1412.00 2170.33,1412.00
             2170.33,1412.00 2184.37,1393.00 2184.37,1393.00
             2184.37,1393.00 2192.25,1384.00 2192.25,1384.00
             2192.25,1384.00 2216.61,1354.04 2216.61,1354.04 Z
           M 1146.00,1523.00
           C 1146.00,1523.00 1193.00,1543.47 1193.00,1543.47
             1199.44,1545.90 1211.43,1548.99 1215.00,1555.00
             1221.05,1554.25 1229.62,1556.68 1233.15,1562.05
             1233.15,1562.05 1239.25,1576.00 1239.25,1576.00
             1239.25,1576.00 1272.37,1643.00 1272.37,1643.00
             1275.75,1650.61 1283.37,1660.74 1284.00,1669.00
             1287.62,1671.58 1289.13,1676.15 1291.17,1680.00
             1291.17,1680.00 1303.25,1704.00 1303.25,1704.00
             1303.25,1704.00 1309.51,1716.00 1309.51,1716.00
             1309.51,1716.00 1313.03,1724.00 1313.03,1724.00
             1313.03,1724.00 1318.75,1734.00 1318.75,1734.00
             1318.75,1734.00 1344.86,1785.00 1344.86,1785.00
             1344.86,1785.00 1375.17,1843.00 1375.17,1843.00
             1375.17,1843.00 1380.51,1852.00 1380.51,1852.00
             1380.51,1852.00 1411.38,1908.00 1411.38,1908.00
             1411.38,1908.00 1414.62,1915.00 1414.62,1915.00
             1427.31,1938.01 1440.19,1961.11 1456.23,1982.00
             1481.54,2014.96 1516.91,2044.42 1551.00,2068.02
             1551.00,2068.02 1585.00,2090.50 1585.00,2090.50
             1592.24,2095.21 1600.93,2101.13 1609.00,2104.00
             1609.00,2104.00 1608.00,2106.00 1608.00,2106.00
             1620.55,2109.58 1634.49,2119.70 1646.00,2125.92
             1646.00,2125.92 1658.00,2131.80 1658.00,2131.80
             1658.00,2131.80 1679.00,2143.73 1679.00,2143.73
             1679.00,2143.73 1694.72,2150.66 1694.72,2150.66
             1699.45,2154.05 1702.91,2158.76 1707.09,2162.72
             1707.09,2162.72 1726.00,2179.09 1726.00,2179.09
             1726.00,2179.09 1742.00,2194.70 1742.00,2194.70
             1742.00,2194.70 1773.00,2218.48 1773.00,2218.48
             1773.00,2218.48 1807.00,2244.09 1807.00,2244.09
             1807.00,2244.09 1823.00,2255.12 1823.00,2255.12
             1823.00,2255.12 1838.00,2265.43 1838.00,2265.43
             1838.00,2265.43 1873.00,2289.86 1873.00,2289.86
             1875.48,2291.36 1889.17,2300.73 1890.40,2302.33
             1891.71,2304.03 1891.67,2305.03 1892.00,2307.00
             1879.37,2307.00 1871.08,2304.49 1859.00,2301.59
             1859.00,2301.59 1832.00,2295.55 1832.00,2295.55
             1832.00,2295.55 1816.00,2290.22 1816.00,2290.22
             1816.00,2290.22 1808.28,2288.59 1808.28,2288.59
             1797.41,2285.66 1787.44,2279.25 1776.00,2279.00
             1776.00,2279.00 1776.00,2276.00 1776.00,2276.00
             1764.47,2275.47 1765.13,2273.37 1756.00,2269.77
             1751.55,2268.02 1750.08,2269.24 1747.00,2265.00
             1747.00,2265.00 1725.00,2259.00 1725.00,2259.00
             1722.39,2254.84 1717.69,2253.76 1713.00,2254.00
             1709.10,2249.84 1705.09,2248.97 1700.00,2246.77
             1700.00,2246.77 1679.28,2237.17 1679.28,2237.17
             1679.28,2237.17 1606.04,2198.49 1606.04,2198.49
             1606.04,2198.49 1600.72,2194.74 1600.72,2194.74
             1600.72,2194.74 1593.00,2190.82 1593.00,2190.82
             1593.00,2190.82 1583.00,2184.93 1583.00,2184.93
             1583.00,2184.93 1575.00,2180.99 1575.00,2180.99
             1543.34,2161.34 1509.37,2138.72 1481.00,2114.57
             1481.00,2114.57 1460.42,2096.54 1460.42,2096.54
             1460.42,2096.54 1449.49,2084.90 1449.49,2084.90
             1449.49,2084.90 1442.26,2078.83 1442.26,2078.83
             1442.26,2078.83 1435.85,2070.91 1435.85,2070.91
             1435.85,2070.91 1425.67,2059.96 1425.67,2059.96
             1425.67,2059.96 1405.50,2033.00 1405.50,2033.00
             1405.50,2033.00 1400.01,2023.17 1400.01,2023.17
             1400.01,2023.17 1394.87,2015.99 1394.87,2015.99
             1394.87,2015.99 1389.15,2005.00 1389.15,2005.00
             1389.15,2005.00 1380.03,1990.00 1380.03,1990.00
             1380.03,1990.00 1373.41,1976.09 1373.41,1976.09
             1373.41,1976.09 1361.31,1955.00 1361.31,1955.00
             1361.31,1955.00 1351.33,1936.28 1351.33,1936.28
             1347.64,1929.87 1342.85,1923.55 1342.00,1916.00
             1342.00,1916.00 1339.00,1916.00 1339.00,1916.00
             1339.00,1916.00 1331.12,1899.41 1331.12,1899.41
             1331.12,1899.41 1316.01,1871.00 1316.01,1871.00
             1316.01,1871.00 1306.27,1853.00 1306.27,1853.00
             1306.27,1853.00 1301.61,1843.09 1301.61,1843.09
             1301.61,1843.09 1297.54,1836.91 1297.54,1836.91
             1297.54,1836.91 1293.08,1827.04 1293.08,1827.04
             1293.08,1827.04 1279.82,1802.00 1279.82,1802.00
             1279.82,1802.00 1276.60,1794.09 1276.60,1794.09
             1276.60,1794.09 1272.71,1787.91 1272.71,1787.91
             1272.71,1787.91 1266.96,1776.00 1266.96,1776.00
             1266.96,1776.00 1261.82,1767.00 1261.82,1767.00
             1261.82,1767.00 1258.24,1758.00 1258.24,1758.00
             1258.24,1758.00 1252.82,1749.00 1252.82,1749.00
             1252.82,1749.00 1246.00,1737.00 1246.00,1737.00
             1246.00,1737.00 1236.88,1716.96 1236.88,1716.96
             1236.88,1716.96 1230.64,1703.09 1230.64,1703.09
             1230.64,1703.09 1223.67,1690.93 1223.67,1690.93
             1223.67,1690.93 1214.05,1669.00 1214.05,1669.00
             1214.05,1669.00 1205.06,1651.00 1205.06,1651.00
             1205.06,1651.00 1199.96,1642.00 1199.96,1642.00
             1199.96,1642.00 1194.24,1628.00 1194.24,1628.00
             1194.24,1628.00 1187.35,1615.00 1187.35,1615.00
             1187.35,1615.00 1176.10,1590.00 1176.10,1590.00
             1176.10,1590.00 1170.34,1579.00 1170.34,1579.00
             1170.34,1579.00 1167.65,1572.00 1167.65,1572.00
             1167.65,1572.00 1162.40,1563.00 1162.40,1563.00
             1162.40,1563.00 1159.28,1555.00 1159.28,1555.00
             1159.28,1555.00 1153.40,1544.00 1153.40,1544.00
             1153.40,1544.00 1150.47,1536.00 1150.47,1536.00
             1150.47,1536.00 1145.00,1524.00 1145.00,1524.00
             1145.00,1524.00 1146.00,1523.00 1146.00,1523.00 Z" />
</svg>
