<?xml version="1.0" encoding="UTF-8" standalone="no"?>
<!DOCTYPE svg PUBLIC "-//W3C//DTD SVG 20010904//EN"
              "http://www.w3.org/TR/2001/REC-SVG-20010904/DTD/svg10.dtd">

<svg xmlns="http://www.w3.org/2000/svg"
     width="51.25in" height="54.6528in"
     viewBox="0 0 3690 3935">
  <path id="Seleção"
        fill="none" stroke="black" stroke-width="1"
        d="M 1521.00,1348.00
           C 1528.53,1342.47 1533.43,1331.07 1538.42,1323.00
             1538.42,1323.00 1574.75,1264.00 1574.75,1264.00
             1574.75,1264.00 1632.12,1182.00 1632.12,1182.00
             1632.12,1182.00 1642.50,1167.00 1642.50,1167.00
             1642.50,1167.00 1655.27,1151.72 1655.27,1151.72
             1655.27,1151.72 1660.65,1144.00 1660.65,1144.00
             1660.65,1144.00 1685.42,1112.83 1685.42,1112.83
             1685.42,1112.83 1710.32,1081.00 1710.32,1081.00
             1710.32,1081.00 1721.72,1068.00 1721.72,1068.00
             1721.72,1068.00 1735.25,1051.00 1735.25,1051.00
             1735.25,1051.00 1763.58,1018.00 1763.58,1018.00
             1763.58,1018.00 1781.17,997.00 1781.17,997.00
             1781.17,997.00 1819.09,955.00 1819.09,955.00
             1819.09,955.00 1829.91,944.00 1829.91,944.00
             1829.91,944.00 1845.09,927.04 1845.09,927.04
             1845.09,927.04 1850.74,921.72 1850.74,921.72
             1850.74,921.72 1867.09,903.00 1867.09,903.00
             1867.09,903.00 1919.99,849.00 1919.99,849.00
             1919.99,849.00 1935.58,832.29 1935.58,832.29
             1935.58,832.29 1943.83,824.83 1943.83,824.83
             1943.83,824.83 1961.04,807.03 1961.04,807.03
             1961.04,807.03 1971.00,797.99 1971.00,797.99
             1971.00,797.99 2004.00,765.04 2004.00,765.04
             2004.00,765.04 2059.00,713.91 2059.00,713.91
             2059.00,713.91 2123.00,654.17 2123.00,654.17
             2123.00,654.17 2176.00,607.85 2176.00,607.85
             2176.00,607.85 2221.42,567.59 2221.42,567.59
             2221.42,567.59 2229.00,561.70 2229.00,561.70
             2229.00,561.70 2273.00,523.27 2273.00,523.27
             2273.00,523.27 2378.00,435.57 2378.00,435.57
             2378.00,435.57 2417.00,403.45 2417.00,403.45
             2417.00,403.45 2424.96,397.49 2424.96,397.49
             2424.96,397.49 2447.13,378.85 2447.13,378.85
             2455.80,374.63 2475.34,373.37 2485.00,374.32
             2485.00,374.32 2498.00,377.11 2498.00,377.11
             2498.00,377.11 2550.00,391.75 2550.00,391.75
             2550.00,391.75 2558.00,394.90 2558.00,394.90
             2558.00,394.90 2565.00,396.80 2565.00,396.80
             2565.00,396.80 2573.00,400.72 2573.00,400.72
             2573.00,400.72 2580.00,402.58 2580.00,402.58
             2580.00,402.58 2593.00,408.02 2593.00,408.02
             2593.00,408.02 2598.83,409.68 2598.83,409.68
             2598.83,409.68 2605.04,412.91 2605.04,412.91
             2605.04,412.91 2619.00,418.18 2619.00,418.18
             2619.00,418.18 2628.00,423.11 2628.00,423.11
             2628.00,423.11 2639.00,427.30 2639.00,427.30
             2639.00,427.30 2647.00,432.32 2647.00,432.32
             2647.00,432.32 2679.00,446.95 2679.00,446.95
             2679.00,446.95 2689.72,453.38 2689.72,453.38
             2689.72,453.38 2712.00,465.91 2712.00,465.91
             2712.00,465.91 2737.00,479.66 2737.00,479.66
             2745.78,485.20 2744.60,487.91 2756.00,495.80
             2756.00,495.80 2768.00,503.35 2768.00,503.35
             2768.00,503.35 2789.00,517.97 2789.00,517.97
             2789.00,517.97 2816.00,536.04 2816.00,536.04
             2816.00,536.04 2827.00,544.76 2827.00,544.76
             2827.00,544.76 2845.00,557.85 2845.00,557.85
             2869.15,575.47 2907.15,606.13 2925.33,629.00
             2931.77,637.09 2944.09,653.05 2939.71,664.00
             2937.17,670.37 2931.17,674.13 2926.00,678.21
             2926.00,678.21 2902.00,698.08 2902.00,698.08
             2902.00,698.08 2804.00,779.08 2804.00,779.08
             2804.00,779.08 2732.00,840.28 2732.00,840.28
             2732.00,840.28 2708.00,861.68 2708.00,861.68
             2708.00,861.68 2697.00,870.43 2697.00,870.43
             2697.00,870.43 2688.00,878.68 2688.00,878.68
             2688.00,878.68 2680.28,884.52 2680.28,884.52
             2680.28,884.52 2604.00,952.90 2604.00,952.90
             2604.00,952.90 2596.17,959.19 2596.17,959.19
             2596.17,959.19 2580.04,974.82 2580.04,974.82
             2580.04,974.82 2552.00,1000.09 2552.00,1000.09
             2552.00,1000.09 2538.00,1013.91 2538.00,1013.91
             2538.00,1013.91 2527.00,1023.17 2527.00,1023.17
             2527.00,1023.17 2511.00,1038.99 2511.00,1038.99
             2511.00,1038.99 2501.00,1048.04 2501.00,1048.04
             2501.00,1048.04 2479.00,1069.99 2479.00,1069.99
             2479.00,1069.99 2469.00,1079.04 2469.00,1079.04
             2469.00,1079.04 2439.00,1109.00 2439.00,1109.00
             2439.00,1109.00 2420.00,1129.00 2420.00,1129.00
             2416.00,1133.01 2410.47,1137.02 2408.00,1142.00
             2395.22,1141.88 2372.43,1131.76 2359.00,1127.72
             2359.00,1127.72 2263.00,1101.90 2263.00,1101.90
             2263.00,1101.90 2218.00,1093.19 2218.00,1093.19
             2218.00,1093.19 2139.00,1079.29 2139.00,1079.29
             2139.00,1079.29 2122.00,1076.99 2122.00,1076.99
             2122.00,1076.99 2114.00,1076.99 2114.00,1076.99
             2114.00,1076.99 2107.00,1075.32 2107.00,1075.32
             2107.00,1075.32 2096.00,1074.00 2096.00,1074.00
             2096.00,1074.00 2088.00,1074.00 2088.00,1074.00
             2088.00,1074.00 2069.00,1071.17 2069.00,1071.17
             2069.00,1071.17 2048.00,1069.83 2048.00,1069.83
             2048.00,1069.83 2036.00,1067.96 2036.00,1067.96
             2036.00,1067.96 2026.00,1067.96 2026.00,1067.96
             2026.00,1067.96 1986.00,1065.00 1986.00,1065.00
             1986.00,1065.00 1971.00,1064.00 1971.00,1064.00
             1971.00,1064.00 1955.00,1063.11 1955.00,1063.11
             1955.00,1063.11 1941.00,1063.11 1941.00,1063.11
             1941.00,1063.11 1917.00,1063.11 1917.00,1063.11
             1913.54,1063.02 1911.36,1062.97 1908.00,1064.10
             1892.33,1069.37 1893.09,1084.48 1899.27,1097.00
             1903.79,1106.16 1906.87,1113.36 1912.75,1122.00
             1922.91,1136.97 1941.97,1155.97 1955.00,1169.00
             1982.14,1196.14 2023.79,1227.40 2056.00,1248.89
             2056.00,1248.89 2064.00,1253.48 2064.00,1253.48
             2064.00,1253.48 2096.00,1275.97 2096.00,1275.97
             2096.00,1275.97 2136.00,1301.95 2136.00,1301.95
             2136.00,1301.95 2154.00,1312.46 2154.00,1312.46
             2154.00,1312.46 2163.00,1318.57 2163.00,1318.57
             2163.00,1318.57 2188.00,1333.58 2188.00,1333.58
             2194.84,1337.54 2212.47,1346.85 2217.00,1352.00
             2208.95,1363.83 2199.80,1375.05 2190.56,1386.00
             2190.56,1386.00 2183.37,1394.00 2183.37,1394.00
             2183.37,1394.00 2169.48,1413.00 2169.48,1413.00
             2169.48,1413.00 2162.27,1421.00 2162.27,1421.00
             2162.27,1421.00 2157.63,1428.00 2157.63,1428.00
             2157.63,1428.00 2145.63,1444.00 2145.63,1444.00
             2145.63,1444.00 2121.73,1475.09 2121.73,1475.09
             2121.73,1475.09 2081.02,1533.00 2081.02,1533.00
             2081.02,1533.00 2068.92,1551.91 2068.92,1551.91
             2068.92,1551.91 2055.67,1570.00 2055.67,1570.00
             2055.67,1570.00 2036.97,1601.00 2036.97,1601.00
             2036.97,1601.00 2026.92,1616.00 2026.92,1616.00
             2026.92,1616.00 2010.56,1645.00 2010.56,1645.00
             2010.56,1645.00 1994.82,1673.00 1994.82,1673.00
             1994.82,1673.00 1983.75,1696.00 1983.75,1696.00
             1983.75,1696.00 1975.78,1711.00 1975.78,1711.00
             1975.78,1711.00 1957.69,1751.00 1957.69,1751.00
             1957.69,1751.00 1952.72,1761.00 1952.72,1761.00
             1942.39,1785.05 1934.24,1810.11 1926.26,1835.00
             1926.26,1835.00 1920.75,1851.00 1920.75,1851.00
             1920.75,1851.00 1916.52,1868.00 1916.52,1868.00
             1916.52,1868.00 1911.90,1884.00 1911.90,1884.00
             1911.90,1884.00 1907.55,1906.00 1907.55,1906.00
             1907.55,1906.00 1901.30,1938.00 1901.30,1938.00
             1901.30,1938.00 1900.71,1949.00 1900.71,1949.00
             1900.71,1949.00 1898.17,1966.00 1898.17,1966.00
             1898.17,1966.00 1896.83,1985.00 1896.83,1985.00
             1896.83,1985.00 1895.00,2005.00 1895.00,2005.00
             1895.00,2005.00 1895.00,2042.00 1895.00,2042.00
             1895.00,2042.00 1896.91,2061.00 1896.91,2061.00
             1897.55,2070.32 1897.75,2079.88 1900.00,2089.00
             1891.41,2088.30 1886.01,2086.24 1878.00,2084.51
             1878.00,2084.51 1844.00,2077.80 1844.00,2077.80
             1844.00,2077.80 1799.00,2069.69 1799.00,2069.69
             1799.00,2069.69 1772.00,2064.32 1772.00,2064.32
             1772.00,2064.32 1755.00,2062.54 1755.00,2062.54
             1738.58,2059.65 1703.23,2053.02 1688.00,2053.00
             1688.00,2053.00 1671.00,2053.00 1671.00,2053.00
             1666.06,2053.06 1663.65,2053.49 1659.00,2055.23
             1656.18,2056.28 1653.39,2057.46 1651.04,2059.39
             1647.18,2062.56 1642.81,2069.81 1643.48,2075.00
             1643.48,2075.00 1646.12,2083.00 1646.12,2083.00
             1650.31,2095.88 1658.83,2107.49 1667.20,2118.00
             1667.20,2118.00 1675.80,2129.00 1675.80,2129.00
             1681.03,2135.47 1684.84,2138.01 1688.00,2146.00
             1679.18,2145.07 1665.21,2135.47 1657.00,2131.03
             1657.00,2131.03 1646.00,2125.69 1646.00,2125.69
             1646.00,2125.69 1631.00,2116.68 1631.00,2116.68
             1631.00,2116.68 1613.09,2107.50 1613.09,2107.50
             1613.09,2107.50 1606.91,2103.33 1606.91,2103.33
             1606.91,2103.33 1585.00,2090.23 1585.00,2090.23
             1541.91,2063.17 1497.35,2031.08 1464.44,1992.00
             1438.14,1960.78 1420.01,1923.64 1400.69,1888.00
             1400.69,1888.00 1375.50,1843.00 1375.50,1843.00
             1375.50,1843.00 1358.27,1809.00 1358.27,1809.00
             1358.27,1809.00 1337.11,1770.00 1337.11,1770.00
             1337.11,1770.00 1326.36,1749.00 1326.36,1749.00
             1326.36,1749.00 1318.21,1732.00 1318.21,1732.00
             1318.21,1732.00 1313.26,1724.00 1313.26,1724.00
             1313.26,1724.00 1302.75,1702.00 1302.75,1702.00
             1302.75,1702.00 1273.82,1645.00 1273.82,1645.00
             1273.82,1645.00 1264.51,1625.00 1264.51,1625.00
             1264.51,1625.00 1245.70,1588.00 1245.70,1588.00
             1241.20,1579.43 1235.80,1570.82 1235.00,1561.00
             1235.00,1561.00 1274.00,1572.34 1274.00,1572.34
             1277.37,1573.38 1285.36,1574.46 1287.42,1576.56
             1287.42,1576.56 1293.00,1589.00 1293.00,1589.00
             1293.00,1589.00 1304.78,1615.00 1304.78,1615.00
             1304.78,1615.00 1332.53,1671.00 1332.53,1671.00
             1332.53,1671.00 1341.90,1690.00 1341.90,1690.00
             1341.90,1690.00 1347.59,1699.00 1347.59,1699.00
             1347.59,1699.00 1351.80,1708.00 1351.80,1708.00
             1351.80,1708.00 1361.13,1722.00 1361.13,1722.00
             1361.13,1722.00 1367.11,1734.00 1367.11,1734.00
             1367.11,1734.00 1374.90,1744.00 1374.90,1744.00
             1374.90,1744.00 1382.00,1756.00 1382.00,1756.00
             1397.76,1779.82 1415.09,1804.13 1433.44,1826.00
             1488.55,1891.67 1561.97,1955.00 1638.00,1994.98
             1638.00,1994.98 1654.00,2005.51 1654.00,2005.51
             1654.00,2005.51 1668.00,2012.25 1668.00,2012.25
             1668.00,2012.25 1718.00,2034.68 1718.00,2034.68
             1727.85,2038.42 1733.73,2039.57 1744.00,2041.42
             1747.93,2042.13 1751.99,2043.34 1756.00,2042.67
             1758.59,2042.24 1760.76,2041.24 1763.00,2039.91
             1784.08,2027.42 1758.67,2004.02 1748.00,1994.09
             1738.48,1985.22 1712.15,1965.42 1701.00,1958.59
             1701.00,1958.59 1674.22,1942.39 1674.22,1942.39
             1671.57,1940.02 1670.67,1936.82 1668.60,1934.00
             1668.60,1934.00 1661.83,1926.00 1661.83,1926.00
             1661.83,1926.00 1637.32,1900.00 1637.32,1900.00
             1637.32,1900.00 1632.02,1892.00 1632.02,1892.00
             1632.02,1892.00 1626.67,1885.00 1626.67,1885.00
             1626.67,1885.00 1611.57,1862.00 1611.57,1862.00
             1611.57,1862.00 1592.14,1828.00 1592.14,1828.00
             1592.14,1828.00 1577.52,1801.00 1577.52,1801.00
             1577.52,1801.00 1569.27,1786.00 1569.27,1786.00
             1569.27,1786.00 1566.35,1778.00 1566.35,1778.00
             1566.35,1778.00 1555.31,1755.00 1555.31,1755.00
             1555.31,1755.00 1545.13,1730.00 1545.13,1730.00
             1545.13,1730.00 1522.55,1675.00 1522.55,1675.00
             1522.55,1675.00 1514.95,1657.00 1514.95,1657.00
             1514.95,1657.00 1512.90,1650.00 1512.90,1650.00
             1512.90,1650.00 1506.71,1633.00 1506.71,1633.00
             1506.71,1633.00 1496.47,1604.00 1496.47,1604.00
             1496.47,1604.00 1489.70,1587.00 1489.70,1587.00
             1489.70,1587.00 1486.25,1574.00 1486.25,1574.00
             1486.25,1574.00 1463.74,1506.00 1463.74,1506.00
             1463.74,1506.00 1460.66,1495.00 1460.66,1495.00
             1460.66,1495.00 1456.59,1483.00 1456.59,1483.00
             1456.59,1483.00 1454.91,1476.00 1454.91,1476.00
             1454.91,1476.00 1445.57,1448.00 1445.57,1448.00
             1445.57,1448.00 1441.26,1433.00 1441.26,1433.00
             1441.26,1433.00 1437.19,1422.00 1437.19,1422.00
             1437.19,1422.00 1430.78,1399.00 1430.78,1399.00
             1430.78,1399.00 1427.09,1390.00 1427.09,1390.00
             1427.09,1390.00 1424.43,1380.00 1424.43,1380.00
             1420.52,1366.87 1415.99,1353.68 1408.74,1342.00
             1396.51,1322.31 1376.93,1307.99 1358.00,1295.26
             1333.92,1279.07 1321.05,1273.39 1296.00,1260.58
             1275.87,1250.28 1255.61,1239.98 1234.00,1233.12
             1218.59,1228.22 1203.33,1221.06 1187.00,1219.98
             1180.15,1219.52 1173.10,1218.39 1169.31,1226.02
             1166.82,1231.03 1169.29,1238.11 1171.09,1243.00
             1171.09,1243.00 1179.12,1268.00 1179.12,1268.00
             1179.12,1268.00 1182.24,1279.00 1182.24,1279.00
             1182.24,1279.00 1188.10,1294.00 1188.10,1294.00
             1188.10,1294.00 1189.78,1301.00 1189.78,1301.00
             1189.78,1301.00 1194.65,1315.00 1194.65,1315.00
             1194.65,1315.00 1204.34,1346.00 1204.34,1346.00
             1207.38,1355.51 1215.59,1376.68 1216.00,1385.00
             1205.04,1381.69 1207.47,1379.79 1199.00,1374.71
             1199.00,1374.71 1149.00,1343.00 1149.00,1343.00
             1149.00,1343.00 1133.00,1332.80 1133.00,1332.80
             1130.64,1331.38 1125.28,1328.56 1123.74,1326.61
             1123.74,1326.61 1118.81,1314.00 1118.81,1314.00
             1118.81,1314.00 1110.87,1296.00 1110.87,1296.00
             1110.87,1296.00 1105.68,1283.00 1105.68,1283.00
             1105.68,1283.00 1100.90,1274.00 1100.90,1274.00
             1100.90,1274.00 1095.58,1261.00 1095.58,1261.00
             1095.58,1261.00 1089.87,1249.00 1089.87,1249.00
             1089.87,1249.00 1076.72,1217.00 1076.72,1217.00
             1076.72,1217.00 1057.61,1173.00 1057.61,1173.00
             1057.61,1173.00 1054.45,1163.00 1054.45,1163.00
             1054.45,1163.00 1043.86,1141.00 1043.86,1141.00
             1043.86,1141.00 1036.55,1122.00 1036.55,1122.00
             1036.55,1122.00 1025.67,1096.00 1025.67,1096.00
             1025.67,1096.00 1020.58,1085.00 1020.58,1085.00
             1020.58,1085.00 1009.41,1057.00 1009.41,1057.00
             1009.41,1057.00 1002.10,1041.00 1002.10,1041.00
             1002.10,1041.00 997.21,1026.00 997.21,1026.00
             997.21,1026.00 990.05,1011.00 990.05,1011.00
             990.05,1011.00 986.38,1000.00 986.38,1000.00
             986.38,1000.00 949.14,910.00 949.14,910.00
             949.14,910.00 943.55,895.00 943.55,895.00
             943.55,895.00 922.87,843.03 922.87,843.03
             922.87,843.03 919.92,836.83 919.92,836.83
             919.92,836.83 909.55,810.00 909.55,810.00
             909.55,810.00 904.42,798.00 904.42,798.00
             904.42,798.00 899.09,783.00 899.09,783.00
             899.09,783.00 884.61,747.00 884.61,747.00
             884.61,747.00 857.80,678.00 857.80,678.00
             857.80,678.00 847.45,652.00 847.45,652.00
             847.45,652.00 839.52,631.00 839.52,631.00
             839.52,631.00 836.54,621.00 836.54,621.00
             836.54,621.00 831.06,609.00 831.06,609.00
             831.06,609.00 817.26,572.00 817.26,572.00
             817.26,572.00 804.06,539.00 804.06,539.00
             804.06,539.00 789.55,500.00 789.55,500.00
             789.55,500.00 772.80,456.00 772.80,456.00
             770.46,449.79 766.38,441.77 767.13,435.00
             767.46,432.06 769.95,425.87 772.41,424.16
             776.70,421.20 791.54,420.94 797.00,421.00
             804.47,421.09 815.51,423.47 823.00,425.00
             823.00,425.00 846.00,429.48 846.00,429.48
             846.00,429.48 853.00,432.39 853.00,432.39
             853.00,432.39 869.00,436.63 869.00,436.63
             869.00,436.63 876.00,439.23 876.00,439.23
             876.00,439.23 951.00,466.46 951.00,466.46
             951.00,466.46 970.00,473.61 970.00,473.61
             970.00,473.61 979.00,478.05 979.00,478.05
             979.00,478.05 996.00,485.15 996.00,485.15
             996.00,485.15 1004.00,490.33 1004.00,490.33
             1004.00,490.33 1019.00,497.78 1019.00,497.78
             1019.00,497.78 1032.00,505.10 1032.00,505.10
             1032.00,505.10 1039.00,508.35 1039.00,508.35
             1039.00,508.35 1064.00,523.37 1064.00,523.37
             1064.00,523.37 1082.00,533.39 1082.00,533.39
             1082.00,533.39 1094.00,541.37 1094.00,541.37
             1094.00,541.37 1102.00,545.54 1102.00,545.54
             1107.27,549.05 1107.12,550.81 1114.00,553.00
             1115.87,559.07 1122.13,562.47 1127.00,566.13
             1127.00,566.13 1160.00,590.13 1160.00,590.13
             1160.00,590.13 1190.00,612.63 1190.00,612.63
             1190.00,612.63 1202.91,622.13 1202.91,622.13
             1202.91,622.13 1212.00,630.83 1212.00,630.83
             1229.88,647.11 1247.06,663.06 1258.03,685.00
             1258.03,685.00 1269.91,715.00 1269.91,715.00
             1269.91,715.00 1279.45,740.00 1279.45,740.00
             1279.45,740.00 1284.91,753.00 1284.91,753.00
             1284.91,753.00 1287.81,762.00 1287.81,762.00
             1287.81,762.00 1292.55,773.00 1292.55,773.00
             1292.55,773.00 1300.62,795.00 1300.62,795.00
             1300.62,795.00 1309.56,817.00 1309.56,817.00
             1309.56,817.00 1321.44,850.00 1321.44,850.00
             1321.44,850.00 1328.58,867.00 1328.58,867.00
             1328.58,867.00 1351.45,927.00 1351.45,927.00
             1351.45,927.00 1387.20,1019.00 1387.20,1019.00
             1387.20,1019.00 1403.34,1058.00 1403.34,1058.00
             1403.34,1058.00 1413.45,1085.00 1413.45,1085.00
             1413.45,1085.00 1419.55,1099.00 1419.55,1099.00
             1419.55,1099.00 1423.46,1110.00 1423.46,1110.00
             1423.46,1110.00 1427.65,1119.00 1427.65,1119.00
             1427.65,1119.00 1437.45,1145.00 1437.45,1145.00
             1437.45,1145.00 1449.54,1174.00 1449.54,1174.00
             1449.54,1174.00 1459.60,1200.00 1459.60,1200.00
             1459.60,1200.00 1521.00,1348.00 1521.00,1348.00 Z
           M 987.00,693.57
           C 982.56,693.83 975.73,694.66 972.27,697.65
             967.91,701.43 967.94,708.71 968.00,714.00
             968.00,714.00 969.92,731.00 969.92,731.00
             969.92,731.00 969.92,742.00 969.92,742.00
             970.09,749.43 971.30,750.43 972.54,757.00
             972.54,757.00 974.46,770.00 974.46,770.00
             974.46,770.00 978.85,788.00 978.85,788.00
             978.85,788.00 980.92,799.00 980.92,799.00
             980.92,799.00 986.22,815.00 986.22,815.00
             986.22,815.00 1001.64,863.00 1001.64,863.00
             1001.64,863.00 1024.55,923.00 1024.55,923.00
             1030.98,939.08 1035.83,954.70 1046.29,969.00
             1056.34,982.74 1075.09,997.38 1089.00,1007.42
             1113.06,1024.79 1131.73,1033.68 1158.00,1046.37
             1158.00,1046.37 1168.00,1052.21 1168.00,1052.21
             1168.00,1052.21 1208.00,1068.69 1208.00,1068.69
             1224.54,1074.52 1249.54,1084.79 1267.00,1085.00
             1269.87,1085.03 1275.48,1085.24 1278.00,1084.26
             1283.71,1082.05 1285.21,1077.58 1283.96,1072.00
             1283.96,1072.00 1273.43,1043.00 1273.43,1043.00
             1273.43,1043.00 1264.81,1022.00 1264.81,1022.00
             1264.81,1022.00 1256.80,1000.09 1256.80,1000.09
             1256.80,1000.09 1253.66,993.91 1253.66,993.91
             1253.66,993.91 1249.20,979.00 1249.20,979.00
             1249.20,979.00 1245.33,969.00 1245.33,969.00
             1245.33,969.00 1242.36,959.17 1242.36,959.17
             1242.36,959.17 1240.10,953.91 1240.10,953.91
             1240.10,953.91 1228.58,911.00 1228.58,911.00
             1225.13,895.72 1218.18,864.84 1218.00,850.00
             1217.91,841.99 1218.49,833.60 1215.39,826.00
             1213.33,820.95 1206.90,813.90 1203.00,810.00
             1192.90,799.91 1181.39,791.99 1170.00,783.52
             1133.22,756.19 1105.84,740.30 1065.00,719.75
             1042.86,708.61 1011.84,694.82 987.00,693.57 Z" />
</svg>
