<?xml version="1.0" encoding="UTF-8" standalone="no"?>
<!DOCTYPE svg PUBLIC "-//W3C//DTD SVG 20010904//EN"
              "http://www.w3.org/TR/2001/REC-SVG-20010904/DTD/svg10.dtd">

<svg xmlns="http://www.w3.org/2000/svg"
     width="51.25in" height="54.6528in"
     viewBox="0 0 3690 3935">
  <path id="Seleção #3"
        fill="none" stroke="black" stroke-width="1"
        d="M 1376.00,129.00
           C 1377.54,122.66 1376.28,114.27 1380.43,109.09
             1385.16,103.19 1393.05,103.01 1400.00,103.00
             1400.00,103.00 1418.00,103.00 1418.00,103.00
             1418.00,103.00 1430.00,103.96 1430.00,103.96
             1430.00,103.96 1444.00,103.96 1444.00,103.96
             1444.00,103.96 1469.00,106.83 1469.00,106.83
             1469.00,106.83 1507.00,111.30 1507.00,111.30
             1507.00,111.30 1537.00,117.34 1537.00,117.34
             1537.00,117.34 1547.00,118.30 1547.00,118.30
             1547.00,118.30 1556.00,120.63 1556.00,120.63
             1556.00,120.63 1562.00,121.39 1562.00,121.39
             1562.00,121.39 1571.00,124.47 1571.00,124.47
             1571.00,124.47 1578.00,125.47 1578.00,125.47
             1578.00,125.47 1584.00,127.45 1584.00,127.45
             1584.00,127.45 1591.00,128.75 1591.00,128.75
             1591.00,128.75 1611.00,134.51 1611.00,134.51
             1611.00,134.51 1624.00,137.68 1624.00,137.68
             1624.00,137.68 1631.00,138.71 1631.00,138.71
             1631.00,138.71 1646.00,144.22 1646.00,144.22
             1646.00,144.22 1654.00,145.63 1654.00,145.63
             1654.00,145.63 1661.00,148.08 1661.00,148.08
             1661.00,148.08 1678.00,152.57 1678.00,152.57
             1678.00,152.57 1691.00,156.44 1691.00,156.44
             1691.00,156.44 1705.00,161.51 1705.00,161.51
             1705.00,161.51 1711.00,162.61 1711.00,162.61
             1711.00,162.61 1719.00,165.41 1719.00,165.41
             1719.00,165.41 1732.00,168.89 1732.00,168.89
             1732.00,168.89 1741.00,172.07 1741.00,172.07
             1741.00,172.07 1748.00,173.59 1748.00,173.59
             1757.21,176.13 1771.88,181.97 1781.00,181.00
             1782.17,183.69 1787.26,184.34 1790.00,185.13
             1790.00,185.13 1803.00,189.22 1803.00,189.22
             1803.00,189.22 1817.00,192.82 1817.00,192.82
             1817.00,192.82 1831.00,198.69 1831.00,198.69
             1831.00,198.69 1867.00,213.32 1867.00,213.32
             1867.00,213.32 1875.00,217.75 1875.00,217.75
             1875.00,217.75 1887.58,222.44 1887.58,222.44
             1887.58,222.44 1896.00,227.08 1896.00,227.08
             1896.00,227.08 1911.96,234.45 1911.96,234.45
             1916.56,236.65 1919.68,239.00 1925.00,239.00
             1926.62,243.70 1933.37,245.99 1938.00,246.00
             1938.00,246.00 1945.00,250.87 1945.00,250.87
             1945.00,250.87 1949.99,254.03 1949.99,254.03
             1949.99,254.03 1960.01,258.36 1960.01,258.36
             1960.01,258.36 1968.00,263.06 1968.00,263.06
             1968.00,263.06 2007.00,283.08 2007.00,283.08
             2007.00,283.08 2015.00,287.79 2015.00,287.79
             2015.00,287.79 2021.72,290.23 2021.72,290.23
             2021.72,290.23 2030.00,296.03 2030.00,296.03
             2030.00,296.03 2048.00,305.33 2048.00,305.33
             2048.00,305.33 2062.00,313.00 2062.00,313.00
             2062.00,313.00 2062.00,318.00 2062.00,318.00
             2071.19,316.47 2073.68,320.51 2081.00,325.03
             2081.00,325.03 2089.00,329.25 2089.00,329.25
             2089.00,329.25 2102.00,336.92 2102.00,336.92
             2102.00,336.92 2131.00,354.69 2131.00,354.69
             2131.00,354.69 2165.00,375.52 2165.00,375.52
             2165.00,375.52 2177.00,383.77 2177.00,383.77
             2177.00,383.77 2184.74,388.11 2184.74,388.11
             2184.74,388.11 2189.26,391.83 2189.26,391.83
             2189.26,391.83 2201.00,398.77 2201.00,398.77
             2201.00,398.77 2227.00,418.15 2227.00,418.15
             2231.11,421.17 2234.77,425.50 2240.00,426.00
             2242.50,429.94 2250.96,437.37 2254.99,439.87
             2257.67,441.54 2261.79,444.13 2261.13,447.91
             2260.61,450.85 2252.50,456.84 2250.00,459.00
             2250.00,459.00 2216.00,487.73 2216.00,487.73
             2216.00,487.73 2141.00,551.29 2141.00,551.29
             2141.00,551.29 2086.00,599.27 2086.00,599.27
             2086.00,599.27 2031.00,648.83 2031.00,648.83
             2031.00,648.83 1995.00,681.09 1995.00,681.09
             1995.00,681.09 1968.00,706.91 1968.00,706.91
             1968.00,706.91 1946.00,727.04 1946.00,727.04
             1946.00,727.04 1924.00,748.96 1924.00,748.96
             1924.00,748.96 1890.99,780.04 1890.99,780.04
             1890.99,780.04 1860.00,810.96 1860.00,810.96
             1860.00,810.96 1851.01,819.04 1851.01,819.04
             1851.01,819.04 1840.00,831.00 1840.00,831.00
             1840.00,831.00 1803.04,868.00 1803.04,868.00
             1803.04,868.00 1783.91,889.00 1783.91,889.00
             1783.91,889.00 1766.09,907.00 1766.09,907.00
             1766.09,907.00 1713.17,965.00 1713.17,965.00
             1713.17,965.00 1668.29,1015.00 1668.29,1015.00
             1668.29,1015.00 1636.57,1053.00 1636.57,1053.00
             1636.57,1053.00 1609.42,1085.00 1609.42,1085.00
             1609.42,1085.00 1571.42,1133.00 1571.42,1133.00
             1566.06,1139.90 1556.24,1154.13 1550.00,1159.00
             1550.00,1159.00 1539.19,1133.00 1539.19,1133.00
             1539.19,1133.00 1527.06,1103.00 1527.06,1103.00
             1527.06,1103.00 1523.28,1092.00 1523.28,1092.00
             1523.28,1092.00 1492.55,1014.00 1492.55,1014.00
             1492.55,1014.00 1479.45,982.00 1479.45,982.00
             1479.45,982.00 1474.80,969.00 1474.80,969.00
             1474.80,969.00 1470.06,958.00 1470.06,958.00
             1470.06,958.00 1454.55,916.00 1454.55,916.00
             1454.55,916.00 1437.55,872.00 1437.55,872.00
             1437.55,872.00 1425.46,842.00 1425.46,842.00
             1425.46,842.00 1413.55,810.00 1413.55,810.00
             1413.55,810.00 1397.80,770.00 1397.80,770.00
             1397.80,770.00 1389.00,745.00 1389.00,745.00
             1389.00,745.00 1492.00,745.00 1492.00,745.00
             1492.00,745.00 1557.00,744.00 1557.00,744.00
             1557.00,744.00 1557.00,742.00 1557.00,742.00
             1557.00,742.00 1543.01,735.84 1543.01,735.84
             1543.01,735.84 1531.00,730.77 1531.00,730.77
             1531.00,730.77 1523.00,726.18 1523.00,726.18
             1523.00,726.18 1503.01,717.12 1503.01,717.12
             1503.01,717.12 1496.72,712.88 1496.72,712.88
             1496.72,712.88 1477.04,703.18 1477.04,703.18
             1477.04,703.18 1468.96,697.66 1468.96,697.66
             1468.96,697.66 1462.04,694.90 1462.04,694.90
             1462.04,694.90 1455.84,691.11 1455.84,691.11
             1455.84,691.11 1451.28,689.11 1451.28,689.11
             1451.28,689.11 1445.96,685.46 1445.96,685.46
             1445.96,685.46 1432.00,677.37 1432.00,677.37
             1432.00,677.37 1424.00,672.27 1424.00,672.27
             1424.00,672.27 1415.00,668.44 1415.00,668.44
             1415.00,668.44 1406.00,661.74 1406.00,661.74
             1406.00,661.74 1384.00,648.34 1384.00,648.34
             1384.00,648.34 1368.00,639.00 1368.00,639.00
             1368.00,639.00 1369.00,634.00 1369.00,634.00
             1361.56,637.80 1360.39,632.76 1354.83,628.99
             1354.83,628.99 1349.09,625.94 1349.09,625.94
             1349.09,625.94 1337.42,616.99 1337.42,616.99
             1337.42,616.99 1331.42,613.44 1331.42,613.44
             1331.42,613.44 1326.96,609.89 1326.96,609.89
             1326.96,609.89 1316.09,603.62 1316.09,603.62
             1316.09,603.62 1305.00,594.87 1305.00,594.87
             1305.00,594.87 1291.00,585.33 1291.00,585.33
             1291.00,585.33 1285.09,582.16 1285.09,582.16
             1285.09,582.16 1276.00,573.66 1276.00,573.66
             1276.00,573.66 1260.00,561.16 1260.00,561.16
             1260.00,561.16 1252.45,556.24 1252.45,556.24
             1252.45,556.24 1244.00,548.74 1244.00,548.74
             1244.00,548.74 1225.00,532.37 1225.00,532.37
             1220.70,528.38 1217.89,527.23 1218.00,521.00
             1212.96,522.88 1211.72,520.43 1208.00,517.07
             1202.60,512.21 1202.72,512.81 1197.73,507.00
             1195.41,504.29 1193.47,501.01 1190.00,500.00
             1188.44,494.29 1185.09,495.17 1186.00,488.00
             1186.00,488.00 1181.00,488.00 1181.00,488.00
             1181.00,488.00 1183.00,483.00 1183.00,483.00
             1183.00,483.00 1179.00,485.00 1179.00,485.00
             1170.50,472.37 1160.61,458.11 1163.32,442.00
             1164.78,433.33 1173.47,424.54 1179.71,418.66
             1194.34,404.87 1208.39,390.29 1226.00,380.30
             1232.33,376.71 1234.29,373.05 1242.00,372.00
             1243.87,366.31 1248.89,365.37 1254.00,363.19
             1263.88,358.96 1267.97,354.90 1279.00,352.00
             1279.00,352.00 1280.00,354.00 1280.00,354.00
             1280.00,354.00 1281.00,354.00 1281.00,354.00
             1282.65,348.98 1287.24,347.23 1292.00,345.55
             1292.00,345.55 1300.00,343.34 1300.00,343.34
             1300.00,343.34 1308.00,339.46 1308.00,339.46
             1308.00,339.46 1319.00,336.12 1319.00,336.12
             1324.70,334.29 1328.29,332.15 1334.00,335.00
             1334.00,335.00 1334.00,331.00 1334.00,331.00
             1334.00,331.00 1345.00,327.52 1345.00,327.52
             1345.00,327.52 1352.00,326.22 1352.00,326.22
             1352.00,326.22 1369.00,321.02 1369.00,321.02
             1369.00,321.02 1393.00,316.49 1393.00,316.49
             1393.00,316.49 1403.00,313.60 1403.00,313.60
             1403.00,313.60 1409.00,312.74 1409.00,312.74
             1409.00,312.74 1416.00,310.55 1416.00,310.55
             1416.00,310.55 1427.00,308.56 1427.00,308.56
             1427.00,308.56 1435.00,306.00 1435.00,306.00
             1435.00,306.00 1441.00,305.25 1441.00,305.25
             1441.00,305.25 1446.00,303.49 1446.00,303.49
             1446.00,303.49 1452.00,302.62 1452.00,302.62
             1452.00,302.62 1459.00,300.53 1459.00,300.53
             1459.00,300.53 1467.00,299.40 1467.00,299.40
             1467.00,299.40 1502.91,289.78 1502.91,289.78
             1502.91,289.78 1511.01,288.64 1511.01,288.64
             1511.01,288.64 1525.00,284.00 1525.00,284.00
             1525.00,284.00 1520.00,284.00 1520.00,284.00
             1520.00,284.00 1522.00,278.00 1522.00,278.00
             1514.43,279.24 1506.98,271.75 1501.00,267.79
             1497.23,265.29 1495.15,265.24 1493.32,264.02
             1493.32,264.02 1486.91,257.75 1486.91,257.75
             1486.91,257.75 1457.00,233.40 1457.00,233.40
             1452.21,229.76 1447.34,221.99 1441.00,222.00
             1439.77,216.66 1429.44,206.27 1424.00,205.00
             1423.43,200.45 1418.55,195.44 1414.00,195.00
             1414.00,195.00 1415.00,192.00 1415.00,192.00
             1411.41,190.58 1408.71,185.13 1405.95,182.00
             1398.47,173.51 1387.33,156.24 1382.47,146.00
             1382.47,146.00 1378.61,135.00 1378.61,135.00
             1377.92,132.37 1378.68,130.07 1376.00,129.00 Z
           M 1573.00,126.00
           C 1572.48,128.33 1572.88,128.17 1575.00,129.00
             1575.00,129.00 1575.00,127.00 1575.00,127.00
             1575.00,127.00 1573.00,126.00 1573.00,126.00 Z
           M 1437.00,306.00
           C 1437.00,306.00 1436.00,306.00 1436.00,306.00
             1436.00,306.00 1437.00,307.00 1437.00,307.00
             1437.00,307.00 1437.00,306.00 1437.00,306.00 Z
           M 2317.00,403.00
           C 2318.07,399.93 2317.93,400.07 2321.00,399.00
             2321.00,399.00 2317.00,403.00 2317.00,403.00 Z
           M 2263.00,447.00
           C 2263.00,447.00 2267.00,444.00 2267.00,444.00
             2267.00,444.00 2263.00,447.00 2263.00,447.00 Z
           M 2868.00,499.00
           C 2871.07,500.07 2870.93,499.93 2872.00,503.00
             2872.00,503.00 2868.00,499.00 2868.00,499.00 Z
           M 1485.00,702.00
           C 1485.00,702.00 1483.00,705.00 1483.00,705.00
             1483.00,705.00 1486.00,705.00 1486.00,705.00
             1486.00,705.00 1485.00,702.00 1485.00,702.00 Z
           M 3033.00,841.00
           C 3033.00,841.00 3034.00,841.00 3034.00,841.00
             3034.00,841.00 3033.00,842.00 3033.00,842.00
             3033.00,842.00 3033.00,841.00 3033.00,841.00 Z
           M 772.00,903.00
           C 772.00,903.00 774.00,907.00 774.00,907.00
             774.00,907.00 772.00,903.00 772.00,903.00 Z
           M 2850.00,994.00
           C 2850.00,994.00 2852.00,994.00 2852.00,994.00
             2852.00,994.00 2849.00,997.00 2849.00,997.00
             2849.00,997.00 2849.00,995.00 2849.00,995.00
             2849.00,995.00 2850.00,994.00 2850.00,994.00 Z
           M 2844.00,1002.00
           C 2844.00,1004.46 2843.20,1004.47 2841.00,1004.00
             2841.00,1004.00 2844.00,1002.00 2844.00,1002.00 Z
           M 2279.00,1386.00
           C 2275.54,1378.87 2270.61,1378.74 2264.00,1375.69
             2264.00,1375.69 2250.00,1368.52 2250.00,1368.52
             2250.00,1368.52 2225.00,1355.03 2225.00,1355.03
             2225.00,1355.03 2218.28,1351.81 2218.28,1351.81
             2218.28,1351.81 2210.00,1346.20 2210.00,1346.20
             2210.00,1346.20 2186.00,1332.01 2186.00,1332.01
             2186.00,1332.01 2164.00,1319.09 2164.00,1319.09
             2164.00,1319.09 2155.00,1312.91 2155.00,1312.91
             2155.00,1312.91 2098.00,1277.00 2098.00,1277.00
             2098.00,1277.00 2064.00,1253.31 2064.00,1253.31
             2064.00,1253.31 2055.00,1248.00 2055.00,1248.00
             2055.00,1248.00 2027.00,1228.15 2027.00,1228.15
             2027.00,1228.15 2006.00,1213.10 2006.00,1213.10
             1983.56,1196.05 1962.90,1176.90 1943.00,1157.00
             1925.61,1139.61 1913.27,1125.31 1902.68,1103.00
             1902.68,1103.00 1898.25,1094.00 1898.25,1094.00
             1894.10,1081.94 1892.81,1068.95 1908.00,1064.63
             1910.60,1063.90 1913.33,1064.00 1916.00,1064.00
             1916.00,1064.00 1963.00,1064.00 1963.00,1064.00
             1963.00,1064.00 1983.00,1065.00 1983.00,1065.00
             1983.00,1065.00 2005.00,1067.00 2005.00,1067.00
             2005.00,1067.00 2014.00,1067.00 2014.00,1067.00
             2014.00,1067.00 2028.00,1068.00 2028.00,1068.00
             2028.00,1068.00 2050.00,1070.94 2050.00,1070.94
             2050.00,1070.94 2062.00,1070.94 2062.00,1070.94
             2062.00,1070.94 2083.00,1074.00 2083.00,1074.00
             2083.00,1074.00 2092.00,1074.00 2092.00,1074.00
             2092.00,1074.00 2112.00,1076.84 2112.00,1076.84
             2112.00,1076.84 2156.00,1082.29 2156.00,1082.29
             2156.00,1082.29 2176.00,1085.92 2176.00,1085.92
             2176.00,1085.92 2193.00,1088.46 2193.00,1088.46
             2193.00,1088.46 2202.00,1090.68 2202.00,1090.68
             2202.00,1090.68 2209.00,1091.46 2209.00,1091.46
             2209.00,1091.46 2220.00,1094.19 2220.00,1094.19
             2220.00,1094.19 2230.00,1095.46 2230.00,1095.46
             2230.00,1095.46 2255.00,1100.99 2255.00,1100.99
             2255.00,1100.99 2264.00,1102.46 2264.00,1102.46
             2264.00,1102.46 2270.00,1104.46 2270.00,1104.46
             2270.00,1104.46 2290.00,1108.89 2290.00,1108.89
             2290.00,1108.89 2327.00,1118.92 2327.00,1118.92
             2327.00,1118.92 2364.00,1129.74 2364.00,1129.74
             2364.00,1129.74 2399.00,1141.64 2399.00,1141.64
             2399.00,1141.64 2407.00,1143.54 2407.00,1143.54
             2407.00,1143.54 2415.00,1147.65 2415.00,1147.65
             2415.00,1147.65 2431.00,1153.53 2431.00,1153.53
             2431.00,1153.53 2453.00,1162.48 2453.00,1162.48
             2460.88,1166.21 2471.14,1171.37 2480.00,1171.00
             2483.01,1176.18 2489.84,1177.72 2495.00,1180.24
             2495.00,1180.24 2534.00,1198.31 2534.00,1198.31
             2534.00,1198.31 2586.00,1223.21 2586.00,1223.21
             2592.61,1226.06 2592.92,1223.97 2599.00,1226.88
             2599.00,1226.88 2626.00,1240.61 2626.00,1240.61
             2626.00,1240.61 2634.00,1244.37 2634.00,1244.37
             2634.00,1244.37 2671.00,1265.91 2671.00,1265.91
             2671.00,1265.91 2689.00,1276.40 2689.00,1276.40
             2689.00,1276.40 2695.83,1279.97 2695.83,1279.97
             2695.83,1279.97 2710.00,1289.72 2710.00,1289.72
             2715.52,1293.38 2722.93,1296.29 2725.00,1303.00
             2732.69,1302.67 2737.95,1308.47 2744.00,1312.66
             2744.00,1312.66 2767.00,1329.38 2767.00,1329.38
             2767.00,1329.38 2777.00,1336.98 2777.00,1336.98
             2777.00,1336.98 2781.74,1339.46 2781.74,1339.46
             2786.12,1342.12 2784.53,1344.08 2791.00,1346.00
             2792.86,1351.82 2797.34,1349.60 2798.00,1358.00
             2798.00,1358.00 2801.00,1355.00 2801.00,1355.00
             2804.50,1359.46 2814.56,1370.11 2820.00,1371.00
             2821.13,1374.70 2828.92,1380.92 2832.00,1384.00
             2832.00,1384.00 2846.00,1397.01 2846.00,1397.01
             2846.00,1397.01 2862.12,1413.63 2862.12,1413.63
             2863.65,1415.11 2864.47,1415.57 2865.85,1417.37
             2868.25,1420.50 2869.84,1425.16 2874.00,1426.00
             2874.00,1426.00 2881.49,1435.70 2881.49,1435.70
             2881.49,1435.70 2885.00,1440.00 2885.00,1440.00
             2885.84,1443.93 2894.71,1450.49 2898.00,1453.25
             2898.00,1453.25 2929.96,1481.58 2929.96,1481.58
             2933.50,1484.79 2939.18,1493.83 2943.00,1495.00
             2943.00,1495.00 2952.54,1508.00 2952.54,1508.00
             2952.54,1508.00 2964.00,1532.00 2964.00,1532.00
             2964.00,1532.00 2962.23,1531.00 2962.23,1531.00
             2962.70,1533.90 2963.40,1536.89 2962.23,1539.83
             2959.67,1548.48 2943.70,1558.93 2936.00,1563.61
             2936.00,1563.61 2917.00,1576.39 2917.00,1576.39
             2917.00,1576.39 2897.05,1587.52 2897.05,1587.52
             2897.05,1587.52 2891.55,1592.03 2891.55,1592.03
             2891.55,1592.03 2864.00,1604.71 2864.00,1604.71
             2864.00,1604.71 2858.00,1608.20 2858.00,1608.20
             2853.64,1610.56 2842.69,1615.49 2838.00,1617.00
             2838.00,1617.00 2837.23,1619.00 2837.23,1619.00
             2837.23,1619.00 2826.00,1622.00 2826.00,1622.00
             2826.00,1622.00 2823.00,1620.00 2823.00,1620.00
             2823.00,1620.00 2824.00,1623.00 2824.00,1623.00
             2819.47,1625.90 2810.19,1628.43 2809.00,1632.00
             2802.44,1631.18 2799.81,1634.14 2794.00,1636.21
             2794.00,1636.21 2786.00,1638.46 2786.00,1638.46
             2786.00,1638.46 2766.83,1646.32 2766.83,1646.32
             2766.83,1646.32 2750.00,1650.31 2750.00,1650.31
             2750.00,1650.31 2741.00,1653.68 2741.00,1653.68
             2741.00,1653.68 2719.00,1658.92 2719.00,1658.92
             2719.00,1658.92 2706.00,1663.22 2706.00,1663.22
             2706.00,1663.22 2686.00,1667.01 2686.00,1667.01
             2686.00,1667.01 2658.00,1673.42 2658.00,1673.42
             2654.88,1673.91 2649.26,1673.73 2648.00,1677.00
             2648.00,1677.00 2636.00,1676.30 2636.00,1676.30
             2636.00,1676.30 2627.00,1678.71 2627.00,1678.71
             2627.00,1678.71 2606.00,1681.83 2606.00,1681.83
             2606.00,1681.83 2569.00,1686.00 2569.00,1686.00
             2569.00,1686.00 2558.00,1686.00 2558.00,1686.00
             2558.00,1686.00 2534.00,1689.00 2534.00,1689.00
             2534.00,1689.00 2520.00,1690.00 2520.00,1690.00
             2520.00,1690.00 2503.00,1690.00 2503.00,1690.00
             2503.00,1690.00 2485.00,1692.00 2485.00,1692.00
             2485.00,1692.00 2403.00,1692.00 2403.00,1692.00
             2403.00,1692.00 2359.00,1692.00 2359.00,1692.00
             2359.00,1692.00 2337.00,1692.00 2337.00,1692.00
             2337.00,1692.00 2352.00,1698.32 2352.00,1698.32
             2352.00,1698.32 2366.00,1706.73 2366.00,1706.73
             2366.00,1706.73 2385.00,1715.89 2385.00,1715.89
             2385.00,1715.89 2390.00,1718.93 2390.00,1718.93
             2395.70,1721.61 2397.40,1720.64 2398.00,1728.00
             2398.00,1728.00 2401.00,1726.00 2401.00,1726.00
             2408.68,1728.42 2423.61,1738.06 2431.00,1742.49
             2431.00,1742.49 2441.00,1747.66 2441.00,1747.66
             2441.00,1747.66 2450.00,1754.15 2450.00,1754.15
             2450.00,1754.15 2458.00,1758.21 2458.00,1758.21
             2458.00,1758.21 2475.00,1769.09 2475.00,1769.09
             2479.66,1772.18 2484.13,1776.04 2490.00,1776.00
             2491.83,1781.71 2500.16,1783.97 2505.00,1786.59
             2512.03,1790.41 2513.49,1792.72 2519.04,1796.47
             2519.04,1796.47 2537.00,1807.88 2537.00,1807.88
             2537.00,1807.88 2545.83,1812.90 2545.83,1812.90
             2545.83,1812.90 2556.00,1820.81 2556.00,1820.81
             2556.00,1820.81 2582.00,1838.20 2582.00,1838.20
             2582.00,1838.20 2606.00,1855.79 2606.00,1855.79
             2606.00,1855.79 2618.91,1863.88 2618.91,1863.88
             2618.91,1863.88 2646.00,1885.44 2646.00,1885.44
             2646.00,1885.44 2657.00,1895.14 2657.00,1895.14
             2657.00,1895.14 2664.74,1899.72 2664.74,1899.72
             2664.74,1899.72 2670.12,1905.74 2670.12,1905.74
             2670.12,1905.74 2676.42,1911.04 2676.42,1911.04
             2681.12,1915.48 2686.83,1923.08 2693.00,1924.00
             2693.00,1924.00 2692.00,1929.00 2692.00,1929.00
             2698.13,1930.84 2700.24,1935.35 2704.22,1939.95
             2713.84,1951.09 2729.63,1974.60 2723.67,1990.00
             2721.09,1996.68 2715.84,2003.48 2711.00,2008.70
             2707.82,2012.14 2704.34,2011.99 2703.00,2017.00
             2697.72,2018.49 2685.00,2031.61 2680.00,2035.81
             2669.77,2044.39 2658.21,2052.36 2647.00,2059.56
             2637.60,2065.59 2639.54,2067.12 2626.00,2072.00
             2626.00,2072.00 2627.00,2075.00 2627.00,2075.00
             2621.55,2074.90 2619.48,2077.30 2615.00,2079.83
             2615.00,2079.83 2591.00,2092.61 2591.00,2092.61
             2591.00,2092.61 2575.54,2099.72 2575.54,2099.72
             2574.34,2100.80 2574.42,2101.30 2574.00,2102.00
             2566.30,2102.42 2546.18,2111.58 2538.00,2114.80
             2538.00,2114.80 2492.00,2129.00 2492.00,2129.00
             2492.00,2129.00 2489.00,2126.00 2489.00,2126.00
             2488.53,2127.38 2488.61,2128.02 2487.41,2129.16
             2484.58,2131.84 2472.18,2134.00 2468.00,2134.80
             2468.00,2134.80 2433.00,2142.54 2433.00,2142.54
             2433.00,2142.54 2408.00,2145.72 2408.00,2145.72
             2408.00,2145.72 2390.00,2148.41 2390.00,2148.41
             2390.00,2148.41 2383.00,2149.00 2383.00,2149.00
             2383.00,2149.00 2376.00,2150.62 2376.00,2150.62
             2376.00,2150.62 2370.00,2150.62 2370.00,2150.62
             2370.00,2150.62 2363.00,2151.91 2363.00,2151.91
             2363.00,2151.91 2351.00,2151.91 2351.00,2151.91
             2351.00,2151.91 2336.00,2153.08 2336.00,2153.08
             2336.00,2153.08 2325.00,2153.08 2325.00,2153.08
             2325.00,2153.08 2304.00,2155.00 2304.00,2155.00
             2304.00,2155.00 2271.00,2155.00 2271.00,2155.00
             2271.00,2155.00 2256.00,2156.00 2256.00,2156.00
             2256.00,2156.00 2210.00,2156.00 2210.00,2156.00
             2210.00,2156.00 2193.00,2155.00 2193.00,2155.00
             2184.19,2154.99 2156.71,2154.09 2150.00,2156.00
             2150.00,2156.00 2165.00,2160.91 2165.00,2160.91
             2165.00,2160.91 2192.00,2169.91 2192.00,2169.91
             2192.00,2169.91 2204.00,2175.14 2204.00,2175.14
             2204.00,2175.14 2218.00,2179.09 2218.00,2179.09
             2218.00,2179.09 2225.00,2182.02 2225.00,2182.02
             2225.00,2182.02 2231.00,2183.79 2231.00,2183.79
             2231.00,2183.79 2241.83,2188.48 2241.83,2188.48
             2241.83,2188.48 2249.01,2190.82 2249.01,2190.82
             2249.01,2190.82 2256.00,2194.23 2256.00,2194.23
             2256.00,2194.23 2264.00,2196.56 2264.00,2196.56
             2264.00,2196.56 2271.00,2199.69 2271.00,2199.69
             2271.00,2199.69 2296.00,2209.95 2296.00,2209.95
             2296.00,2209.95 2322.00,2219.54 2322.00,2219.54
             2322.00,2219.54 2330.00,2223.43 2330.00,2223.43
             2330.00,2223.43 2343.00,2228.43 2343.00,2228.43
             2343.00,2228.43 2350.74,2232.67 2350.74,2232.67
             2350.74,2232.67 2356.01,2234.21 2356.01,2234.21
             2356.01,2234.21 2372.00,2241.00 2372.00,2241.00
             2372.00,2241.00 2371.00,2245.00 2371.00,2245.00
             2379.05,2242.08 2380.72,2244.93 2388.00,2248.36
             2388.00,2248.36 2395.91,2251.62 2395.91,2251.62
             2395.91,2251.62 2414.00,2261.25 2414.00,2261.25
             2414.00,2261.25 2428.00,2267.10 2428.00,2267.10
             2428.00,2267.10 2448.00,2277.79 2448.00,2277.79
             2448.00,2277.79 2467.00,2286.60 2467.00,2286.60
             2473.31,2289.86 2474.72,2292.09 2479.00,2294.61
             2479.00,2294.61 2491.72,2299.93 2491.72,2299.93
             2491.72,2299.93 2497.04,2303.59 2497.04,2303.59
             2497.04,2303.59 2509.00,2310.42 2509.00,2310.42
             2514.54,2313.40 2521.94,2317.54 2527.00,2321.14
             2532.02,2324.72 2535.57,2328.82 2542.00,2328.00
             2543.28,2331.99 2548.53,2334.83 2552.00,2336.99
             2552.00,2336.99 2576.00,2352.10 2576.00,2352.10
             2576.00,2352.10 2586.00,2359.31 2586.00,2359.31
             2586.00,2359.31 2601.72,2369.45 2601.72,2369.45
             2601.72,2369.45 2613.00,2378.56 2613.00,2378.56
             2613.00,2378.56 2622.00,2384.41 2622.00,2384.41
             2622.00,2384.41 2630.00,2391.59 2630.00,2391.59
             2630.00,2391.59 2636.91,2395.85 2636.91,2395.85
             2636.91,2395.85 2643.09,2401.57 2643.09,2401.57
             2643.09,2401.57 2651.83,2408.63 2651.83,2408.63
             2651.83,2408.63 2673.09,2427.30 2673.09,2427.30
             2676.16,2430.14 2678.90,2433.92 2683.00,2435.00
             2684.37,2439.84 2692.29,2445.26 2695.99,2449.00
             2695.99,2449.00 2703.17,2456.83 2703.17,2456.83
             2703.17,2456.83 2709.63,2463.04 2709.63,2463.04
             2709.63,2463.04 2714.68,2469.87 2714.68,2469.87
             2714.68,2469.87 2721.55,2476.96 2721.55,2476.96
             2724.09,2479.98 2730.89,2489.03 2734.00,2490.00
             2735.03,2493.36 2736.23,2492.95 2738.09,2495.46
             2740.27,2498.40 2741.58,2504.39 2748.00,2506.00
             2746.95,2515.25 2761.81,2533.30 2754.15,2546.00
             2750.61,2551.86 2738.78,2557.87 2732.00,2558.00
             2732.00,2558.00 2703.00,2558.00 2703.00,2558.00
             2692.86,2557.98 2696.25,2556.86 2690.00,2555.41
             2690.00,2555.41 2684.00,2554.79 2684.00,2554.79
             2684.00,2554.79 2677.00,2553.20 2677.00,2553.20
             2661.12,2550.81 2627.49,2543.58 2613.00,2538.09
             2613.00,2538.09 2568.00,2523.34 2568.00,2523.34
             2568.00,2523.34 2559.83,2519.54 2559.83,2519.54
             2559.83,2519.54 2554.09,2518.42 2554.09,2518.42
             2554.09,2518.42 2548.83,2515.58 2548.83,2515.58
             2548.83,2515.58 2543.00,2514.08 2543.00,2514.08
             2543.00,2514.08 2533.00,2508.96 2533.00,2508.96
             2533.00,2508.96 2525.17,2507.46 2525.17,2507.46
             2525.17,2507.46 2512.58,2501.99 2512.58,2501.99
             2512.58,2501.99 2497.00,2497.21 2497.00,2497.21
             2497.00,2497.21 2482.00,2491.68 2482.00,2491.68
             2482.00,2491.68 2457.00,2485.08 2457.00,2485.08
             2457.00,2485.08 2447.00,2481.53 2447.00,2481.53
             2447.00,2481.53 2428.00,2477.45 2428.00,2477.45
             2428.00,2477.45 2421.00,2474.67 2421.00,2474.67
             2421.00,2474.67 2410.00,2471.76 2410.00,2471.76
             2410.00,2471.76 2402.00,2470.48 2402.00,2470.48
             2402.00,2470.48 2379.00,2464.34 2379.00,2464.34
             2379.00,2464.34 2354.00,2459.49 2354.00,2459.49
             2354.00,2459.49 2346.00,2457.46 2346.00,2457.46
             2346.00,2457.46 2338.00,2456.08 2338.00,2456.08
             2338.00,2456.08 2331.42,2454.04 2331.42,2454.04
             2331.42,2454.04 2324.00,2453.48 2324.00,2453.48
             2324.00,2453.48 2312.00,2450.37 2312.00,2450.37
             2312.00,2450.37 2302.00,2449.51 2302.00,2449.51
             2302.00,2449.51 2295.00,2447.21 2295.00,2447.21
             2295.00,2447.21 2281.00,2445.49 2281.00,2445.49
             2274.82,2444.21 2264.26,2441.50 2258.00,2442.20
             2253.95,2442.66 2247.61,2446.69 2244.00,2448.89
             2234.97,2454.42 2226.39,2460.06 2218.04,2466.56
             2218.04,2466.56 2199.00,2479.92 2199.00,2479.92
             2199.00,2479.92 2186.26,2489.73 2186.26,2489.73
             2186.26,2489.73 2181.76,2493.93 2181.76,2493.93
             2181.76,2493.93 2157.00,2513.32 2157.00,2513.32
             2157.00,2513.32 2148.00,2521.48 2148.00,2521.48
             2148.00,2521.48 2137.05,2529.46 2137.05,2529.46
             2131.45,2534.35 2132.65,2536.33 2123.00,2540.00
             2123.00,2540.00 2124.00,2544.00 2124.00,2544.00
             2124.00,2544.00 2115.00,2546.00 2115.00,2546.00
             2113.11,2552.24 2110.82,2551.34 2106.00,2554.63
             2106.00,2554.63 2089.00,2568.00 2089.00,2568.00
             2089.00,2568.00 2096.00,2569.00 2096.00,2569.00
             2096.14,2575.03 2100.67,2575.37 2104.49,2578.68
             2104.49,2578.68 2108.32,2582.72 2108.32,2582.72
             2108.32,2582.72 2113.58,2586.50 2113.58,2586.50
             2113.58,2586.50 2121.28,2593.94 2121.28,2593.94
             2126.25,2598.88 2128.82,2598.37 2128.00,2606.00
             2128.00,2606.00 2132.00,2604.00 2132.00,2604.00
             2132.00,2604.00 2147.89,2620.17 2147.89,2620.17
             2147.89,2620.17 2153.85,2628.96 2153.85,2628.96
             2153.85,2628.96 2160.19,2636.09 2160.19,2636.09
             2160.19,2636.09 2164.22,2643.00 2164.22,2643.00
             2164.22,2643.00 2176.83,2661.17 2176.83,2661.17
             2176.83,2661.17 2187.00,2677.00 2187.00,2677.00
             2186.78,2683.11 2192.22,2691.39 2194.91,2697.00
             2194.91,2697.00 2201.19,2712.91 2201.19,2712.91
             2201.19,2712.91 2203.00,2721.00 2203.00,2721.00
             2203.00,2721.00 2200.00,2723.00 2200.00,2723.00
             2200.00,2723.00 2204.00,2723.00 2204.00,2723.00
             2204.40,2730.25 2205.94,2729.98 2207.32,2736.00
             2207.32,2736.00 2208.30,2744.00 2208.30,2744.00
             2209.53,2752.33 2210.98,2751.78 2211.00,2762.00
             2211.00,2762.00 2211.00,2809.00 2211.00,2809.00
             2210.90,2817.03 2209.41,2817.50 2208.32,2824.00
             2208.32,2824.00 2206.88,2835.00 2206.88,2835.00
             2206.88,2835.00 2204.38,2843.00 2204.38,2843.00
             2202.64,2850.78 2201.61,2858.04 2194.83,2863.50
             2188.07,2868.96 2172.54,2871.01 2164.00,2871.00
             2153.60,2870.98 2156.56,2869.97 2150.00,2869.18
             2150.00,2869.18 2139.00,2868.62 2139.00,2868.62
             2139.00,2868.62 2132.00,2866.44 2132.00,2866.44
             2132.00,2866.44 2124.00,2864.65 2124.00,2864.65
             2124.00,2864.65 2118.00,2862.63 2118.00,2862.63
             2118.00,2862.63 2111.00,2861.51 2111.00,2861.51
             2111.00,2861.51 2103.00,2858.49 2103.00,2858.49
             2082.30,2852.60 2061.66,2845.56 2042.00,2836.70
             2042.00,2836.70 2030.00,2831.54 2030.00,2831.54
             2030.00,2831.54 2020.00,2828.25 2020.00,2828.25
             2012.23,2824.71 2006.52,2819.70 1997.00,2819.00
             1996.02,2816.57 1993.27,2815.56 1991.00,2814.27
             1985.58,2811.20 1979.27,2807.30 1973.00,2809.00
             1972.37,2804.46 1967.76,2803.43 1964.00,2801.59
             1964.00,2801.59 1940.00,2790.00 1940.00,2790.00
             1940.00,2790.00 1942.00,2787.00 1942.00,2787.00
             1942.00,2787.00 1939.00,2790.00 1939.00,2790.00
             1939.00,2790.00 1927.00,2783.43 1927.00,2783.43
             1927.00,2783.43 1896.00,2768.11 1896.00,2768.11
             1896.00,2768.11 1889.00,2764.90 1889.00,2764.90
             1889.00,2764.90 1877.00,2756.64 1877.00,2756.64
             1877.00,2756.64 1870.00,2753.62 1870.00,2753.62
             1870.00,2753.62 1863.00,2749.63 1863.00,2749.63
             1863.00,2749.63 1856.00,2746.47 1856.00,2746.47
             1856.00,2746.47 1848.00,2741.14 1848.00,2741.14
             1848.00,2741.14 1842.04,2738.87 1842.04,2738.87
             1842.04,2738.87 1832.00,2733.08 1832.00,2733.08
             1832.00,2733.08 1813.00,2721.42 1813.00,2721.42
             1813.00,2721.42 1796.04,2712.32 1796.04,2712.32
             1790.83,2709.18 1782.99,2703.11 1777.00,2702.00
             1775.62,2698.00 1770.48,2696.24 1767.00,2694.26
             1767.00,2694.26 1743.00,2679.86 1743.00,2679.86
             1743.00,2679.86 1735.00,2674.49 1735.00,2674.49
             1735.00,2674.49 1729.00,2671.59 1729.00,2671.59
             1729.00,2671.59 1719.00,2664.94 1719.00,2664.94
             1719.00,2664.94 1713.45,2662.07 1713.45,2662.07
             1713.45,2662.07 1701.00,2651.88 1701.00,2651.88
             1701.00,2651.88 1688.28,2644.09 1688.28,2644.09
             1688.28,2644.09 1681.99,2638.80 1681.99,2638.80
             1673.64,2632.84 1677.98,2638.22 1668.00,2628.00
             1668.00,2628.00 1670.00,2624.00 1670.00,2624.00
             1670.00,2624.00 1667.00,2626.00 1667.00,2626.00
             1659.26,2623.47 1660.73,2622.33 1654.99,2617.30
             1654.99,2617.30 1638.00,2603.15 1638.00,2603.15
             1620.04,2587.34 1602.35,2568.83 1590.41,2548.00
             1587.90,2543.61 1581.60,2530.60 1580.53,2526.00
             1579.18,2520.26 1578.93,2511.94 1579.00,2506.00
             1579.00,2506.00 1580.39,2491.00 1580.39,2491.00
             1580.39,2491.00 1583.08,2483.00 1583.08,2483.00
             1583.08,2483.00 1587.28,2464.00 1587.28,2464.00
             1587.92,2460.23 1590.66,2452.45 1589.39,2449.18
             1588.44,2446.75 1584.11,2443.80 1582.00,2442.08
             1582.00,2442.08 1564.00,2428.98 1564.00,2428.98
             1564.00,2428.98 1558.17,2425.94 1558.17,2425.94
             1552.34,2422.24 1547.34,2414.49 1540.00,2414.00
             1538.80,2409.84 1535.32,2408.02 1532.00,2405.53
             1521.95,2397.99 1521.85,2399.97 1511.72,2390.00
             1507.74,2386.09 1505.90,2385.82 1506.00,2380.00
             1498.05,2380.85 1495.70,2376.50 1490.17,2371.46
             1490.17,2371.46 1474.00,2357.90 1474.00,2357.90
             1469.22,2353.56 1466.39,2348.88 1460.00,2347.00
             1457.86,2342.44 1456.19,2339.79 1451.00,2339.00
             1450.43,2334.45 1445.55,2329.44 1441.00,2329.00
             1439.76,2323.61 1435.39,2319.24 1430.00,2318.00
             1429.52,2314.15 1427.75,2312.00 1424.00,2311.00
             1423.89,2307.32 1423.73,2306.04 1420.00,2305.00
             1418.84,2299.82 1409.03,2288.55 1405.52,2283.72
             1401.17,2277.72 1397.80,2267.45 1398.02,2260.00
             1398.37,2247.95 1407.70,2248.92 1413.00,2241.00
             1421.68,2241.28 1429.76,2230.56 1436.00,2231.64
             1439.23,2232.20 1446.21,2238.34 1449.00,2240.61
             1449.00,2240.61 1474.00,2259.28 1474.00,2259.28
             1474.00,2259.28 1488.00,2268.76 1488.00,2268.76
             1488.00,2268.76 1494.42,2272.33 1494.42,2272.33
             1494.42,2272.33 1505.00,2280.00 1505.00,2280.00
             1505.00,2280.00 1566.00,2316.52 1566.00,2316.52
             1566.00,2316.52 1644.00,2356.73 1644.00,2356.73
             1644.00,2356.73 1656.00,2363.82 1656.00,2363.82
             1656.00,2363.82 1686.00,2376.55 1686.00,2376.55
             1686.00,2376.55 1695.00,2379.78 1695.00,2379.78
             1695.00,2379.78 1703.00,2383.90 1703.00,2383.90
             1703.00,2383.90 1732.00,2395.06 1732.00,2395.06
             1732.00,2395.06 1780.00,2412.02 1780.00,2412.02
             1780.00,2412.02 1795.00,2417.37 1795.00,2417.37
             1795.00,2417.37 1813.00,2421.67 1813.00,2421.67
             1813.00,2421.67 1821.00,2424.37 1821.00,2424.37
             1821.00,2424.37 1829.00,2425.89 1829.00,2425.89
             1829.00,2425.89 1845.00,2429.60 1845.00,2429.60
             1845.00,2429.60 1871.00,2434.00 1871.00,2434.00
             1871.00,2434.00 1896.00,2436.00 1896.00,2436.00
             1911.36,2436.18 1926.82,2436.34 1942.00,2433.68
             1961.87,2430.20 1985.82,2418.71 2002.00,2406.85
             2010.47,2400.63 2015.45,2396.01 2022.27,2388.00
             2024.33,2385.58 2028.47,2381.70 2026.87,2378.21
             2025.77,2375.82 2021.34,2373.88 2019.00,2372.87
             2019.00,2372.87 1999.00,2363.72 1999.00,2363.72
             1999.00,2363.72 1933.00,2327.55 1933.00,2327.55
             1933.00,2327.55 1904.00,2309.95 1904.00,2309.95
             1904.00,2309.95 1894.37,2306.02 1894.37,2306.02
             1894.37,2306.02 1888.90,2300.60 1888.90,2300.60
             1888.90,2300.60 1876.00,2291.32 1876.00,2291.32
             1876.00,2291.32 1869.00,2287.03 1869.00,2287.03
             1869.00,2287.03 1818.00,2250.91 1818.00,2250.91
             1818.00,2250.91 1807.00,2243.79 1807.00,2243.79
             1807.00,2243.79 1793.00,2233.15 1793.00,2233.15
             1793.00,2233.15 1763.00,2210.99 1763.00,2210.99
             1763.00,2210.99 1741.28,2193.58 1741.28,2193.58
             1741.28,2193.58 1722.00,2175.21 1722.00,2175.21
             1722.00,2175.21 1716.00,2170.63 1716.00,2170.63
             1716.00,2170.63 1698.28,2153.44 1698.28,2153.44
             1698.28,2153.44 1689.63,2146.51 1689.63,2146.51
             1689.63,2146.51 1684.47,2139.00 1684.47,2139.00
             1684.47,2139.00 1673.55,2126.00 1673.55,2126.00
             1667.25,2118.12 1658.06,2106.73 1653.41,2098.00
             1648.83,2089.41 1649.97,2091.97 1646.68,2083.00
             1643.92,2075.47 1642.25,2070.33 1647.65,2063.04
             1653.29,2055.42 1667.03,2053.09 1676.00,2053.00
             1676.00,2053.00 1688.00,2053.91 1688.00,2053.91
             1688.00,2053.91 1707.00,2055.28 1707.00,2055.28
             1707.00,2055.28 1746.00,2061.58 1746.00,2061.58
             1746.00,2061.58 1759.00,2063.83 1759.00,2063.83
             1759.00,2063.83 1775.00,2065.46 1775.00,2065.46
             1775.00,2065.46 1839.00,2077.74 1839.00,2077.74
             1839.00,2077.74 1878.00,2085.21 1878.00,2085.21
             1878.00,2085.21 1891.00,2088.49 1891.00,2088.49
             1891.00,2088.49 1899.00,2089.47 1899.00,2089.47
             1899.00,2089.47 1905.00,2091.45 1905.00,2091.45
             1905.00,2091.45 1919.00,2094.58 1919.00,2094.58
             1919.00,2094.58 1931.00,2097.03 1931.00,2097.03
             1931.00,2097.03 1938.00,2097.03 1938.00,2097.03
             1938.00,2097.03 1945.00,2099.81 1945.00,2099.81
             1945.00,2099.81 1972.00,2106.51 1972.00,2106.51
             1972.00,2106.51 1981.00,2109.56 1981.00,2109.56
             1981.00,2109.56 2001.00,2113.89 2001.00,2113.89
             2009.04,2115.91 2017.64,2119.54 2026.00,2120.00
             2026.00,2120.00 2026.00,2097.00 2026.00,2097.00
             2026.00,2097.00 2028.00,2064.00 2028.00,2064.00
             2028.00,2064.00 2035.00,2018.00 2035.00,2018.00
             2041.98,1983.09 2052.34,1949.05 2065.55,1916.00
             2065.55,1916.00 2074.87,1892.00 2074.87,1892.00
             2074.87,1892.00 2088.69,1863.00 2088.69,1863.00
             2088.69,1863.00 2097.37,1843.00 2097.37,1843.00
             2097.37,1843.00 2120.14,1802.00 2120.14,1802.00
             2149.18,1749.69 2181.67,1699.47 2216.74,1651.00
             2216.74,1651.00 2242.88,1616.00 2242.88,1616.00
             2268.30,1581.48 2295.45,1548.15 2322.61,1515.00
             2322.61,1515.00 2355.59,1475.00 2355.59,1475.00
             2355.59,1475.00 2363.72,1466.00 2363.72,1466.00
             2363.72,1466.00 2383.28,1444.00 2383.28,1444.00
             2388.70,1437.85 2394.03,1434.64 2395.00,1426.00
             2382.45,1425.88 2380.52,1421.97 2371.00,1419.55
             2371.00,1419.55 2364.00,1418.32 2364.00,1418.32
             2364.00,1418.32 2351.00,1413.43 2351.00,1413.43
             2351.00,1413.43 2311.00,1397.58 2311.00,1397.58
             2311.00,1397.58 2299.00,1392.69 2299.00,1392.69
             2291.35,1389.24 2287.80,1386.22 2279.00,1386.00 Z
           M 2707.00,1120.00
           C 2707.52,1122.33 2707.12,1122.17 2705.00,1123.00
             2705.00,1123.00 2705.00,1122.00 2705.00,1122.00
             2705.00,1122.00 2707.00,1120.00 2707.00,1120.00 Z
           M 781.00,1250.00
           C 777.94,1239.17 773.87,1236.39 774.00,1224.00
             774.03,1221.21 774.06,1218.57 775.31,1216.00
             781.65,1203.00 800.05,1204.98 812.00,1205.00
             812.00,1205.00 850.00,1208.46 850.00,1208.46
             850.00,1208.46 862.00,1211.54 862.00,1211.54
             862.00,1211.54 872.00,1212.44 872.00,1212.44
             872.00,1212.44 895.00,1218.31 895.00,1218.31
             901.62,1220.43 899.59,1221.81 908.00,1224.67
             908.00,1224.67 941.00,1235.32 941.00,1235.32
             941.00,1235.32 980.00,1250.28 980.00,1250.28
             980.00,1250.28 1001.00,1260.13 1001.00,1260.13
             1001.00,1260.13 1028.00,1271.67 1028.00,1271.67
             1028.00,1271.67 1045.00,1281.93 1045.00,1281.93
             1045.00,1281.93 1053.00,1285.88 1053.00,1285.88
             1053.00,1285.88 1065.00,1293.14 1065.00,1293.14
             1065.00,1293.14 1108.00,1317.72 1108.00,1317.72
             1108.00,1317.72 1119.64,1323.29 1119.64,1323.29
             1122.09,1324.75 1122.54,1326.87 1127.02,1329.65
             1127.02,1329.65 1188.00,1368.48 1188.00,1368.48
             1188.00,1368.48 1201.00,1375.96 1201.00,1375.96
             1201.00,1375.96 1210.00,1383.13 1210.00,1383.13
             1210.00,1383.13 1218.00,1387.34 1218.00,1387.34
             1218.00,1387.34 1227.00,1394.32 1227.00,1394.32
             1227.00,1394.32 1233.00,1397.68 1233.00,1397.68
             1233.00,1397.68 1270.96,1424.43 1270.96,1424.43
             1270.96,1424.43 1278.09,1430.43 1278.09,1430.43
             1278.09,1430.43 1285.83,1435.04 1285.83,1435.04
             1285.83,1435.04 1308.96,1453.26 1308.96,1453.26
             1308.96,1453.26 1315.17,1459.63 1315.17,1459.63
             1315.17,1459.63 1322.00,1465.10 1322.00,1465.10
             1322.00,1465.10 1337.09,1479.85 1337.09,1479.85
             1337.09,1479.85 1346.72,1488.29 1346.72,1488.29
             1346.72,1488.29 1357.09,1500.00 1357.09,1500.00
             1369.55,1513.44 1380.27,1524.03 1388.36,1541.00
             1393.79,1552.39 1405.27,1573.29 1390.82,1582.64
             1382.34,1588.12 1360.42,1585.12 1350.00,1585.00
             1342.39,1584.91 1341.69,1583.51 1336.00,1582.96
             1336.00,1582.96 1326.00,1582.96 1326.00,1582.96
             1326.00,1582.96 1296.00,1576.60 1296.00,1576.60
             1296.00,1576.60 1290.00,1576.60 1290.00,1576.60
             1290.00,1576.60 1274.00,1571.96 1274.00,1571.96
             1274.00,1571.96 1249.00,1564.34 1249.00,1564.34
             1243.84,1562.73 1238.45,1560.52 1233.00,1561.00
             1228.11,1555.47 1219.70,1554.01 1213.00,1551.15
             1213.00,1551.15 1201.00,1545.75 1201.00,1545.75
             1201.00,1545.75 1190.00,1541.69 1190.00,1541.69
             1190.00,1541.69 1166.00,1530.94 1166.00,1530.94
             1166.00,1530.94 1147.18,1523.11 1147.18,1523.11
             1145.70,1523.06 1145.23,1523.49 1144.00,1524.00
             1138.40,1516.38 1135.55,1516.90 1128.17,1512.83
             1128.17,1512.83 1100.00,1496.72 1100.00,1496.72
             1100.00,1496.72 1060.00,1473.80 1060.00,1473.80
             1060.00,1473.80 1027.00,1453.19 1027.00,1453.19
             1027.00,1453.19 1005.17,1439.69 1005.17,1439.69
             999.61,1436.41 1000.76,1435.22 993.00,1433.00
             993.75,1441.87 996.93,1446.20 1000.53,1454.00
             1000.53,1454.00 1015.14,1487.00 1015.14,1487.00
             1015.14,1487.00 1034.67,1530.00 1034.67,1530.00
             1034.67,1530.00 1042.37,1549.00 1042.37,1549.00
             1042.37,1549.00 1055.69,1576.00 1055.69,1576.00
             1055.69,1576.00 1060.98,1589.00 1060.98,1589.00
             1060.98,1589.00 1066.03,1598.00 1066.03,1598.00
             1066.03,1598.00 1075.00,1619.00 1075.00,1619.00
             1070.89,1618.27 1065.48,1617.58 1063.00,1614.00
             1063.00,1614.00 1060.00,1615.00 1060.00,1615.00
             1058.78,1611.07 1056.41,1610.92 1053.00,1609.27
             1053.00,1609.27 1038.00,1600.97 1038.00,1600.97
             1038.00,1600.97 1012.00,1587.65 1012.00,1587.65
             1012.00,1587.65 998.83,1578.87 998.83,1578.87
             998.83,1578.87 984.00,1571.17 984.00,1571.17
             977.33,1567.52 967.31,1559.94 960.00,1560.00
             959.83,1558.71 960.02,1558.30 959.10,1557.09
             957.06,1554.40 943.90,1547.43 940.28,1545.58
             940.28,1545.58 894.00,1517.43 894.00,1517.43
             888.51,1513.74 877.06,1504.87 871.00,1505.00
             869.11,1498.06 863.42,1501.02 863.00,1493.00
             856.84,1495.37 857.27,1491.84 851.00,1491.00
             851.00,1491.00 850.17,1489.10 850.17,1489.10
             850.17,1489.10 838.99,1481.15 838.99,1481.15
             838.99,1481.15 825.00,1472.38 825.00,1472.38
             825.00,1472.38 800.00,1455.00 800.00,1455.00
             800.00,1455.00 802.00,1451.00 802.00,1451.00
             795.05,1453.19 790.25,1448.43 784.83,1444.51
             784.83,1444.51 778.42,1440.54 778.42,1440.54
             778.42,1440.54 751.00,1419.00 751.00,1419.00
             724.18,1397.74 691.42,1368.96 670.65,1342.00
             662.40,1331.29 650.03,1311.78 649.21,1298.00
             648.70,1289.35 654.82,1284.07 656.00,1279.00
             656.00,1279.00 678.00,1270.13 678.00,1270.13
             678.00,1270.13 696.00,1266.50 696.00,1266.50
             696.00,1266.50 723.00,1260.01 723.00,1260.01
             723.00,1260.01 748.04,1255.77 748.04,1255.77
             748.04,1255.77 763.00,1252.61 763.00,1252.61
             763.00,1252.61 772.00,1251.70 772.00,1251.70
             772.00,1251.70 781.00,1250.00 781.00,1250.00 Z
           M 897.00,1220.00
           C 897.00,1220.00 895.00,1221.00 895.00,1221.00
             895.00,1221.00 898.00,1223.00 898.00,1223.00
             898.00,1223.00 897.00,1220.00 897.00,1220.00 Z
           M 2788.00,1347.00
           C 2788.00,1347.00 2786.00,1350.00 2786.00,1350.00
             2786.00,1350.00 2789.00,1350.00 2789.00,1350.00
             2789.00,1350.00 2788.00,1347.00 2788.00,1347.00 Z
           M 1096.00,1662.00
           C 1096.00,1662.00 1097.00,1662.00 1097.00,1662.00
             1097.00,1662.00 1096.00,1663.00 1096.00,1663.00
             1096.00,1663.00 1096.00,1662.00 1096.00,1662.00 Z
           M 997.00,1857.00
           C 997.00,1843.25 997.59,1836.57 1009.01,1827.20
             1011.80,1824.92 1014.79,1822.46 1018.00,1820.83
             1018.00,1820.83 1035.00,1815.07 1035.00,1815.07
             1035.00,1815.07 1041.00,1811.98 1041.00,1811.98
             1041.00,1811.98 1053.00,1808.05 1053.00,1808.05
             1053.00,1808.05 1066.00,1802.74 1066.00,1802.74
             1066.00,1802.74 1081.00,1798.39 1081.00,1798.39
             1081.00,1798.39 1088.00,1795.48 1088.00,1795.48
             1088.00,1795.48 1115.00,1788.70 1115.00,1788.70
             1115.00,1788.70 1123.00,1785.93 1123.00,1785.93
             1123.00,1785.93 1132.00,1784.68 1132.00,1784.68
             1132.00,1784.68 1140.00,1782.51 1140.00,1782.51
             1145.29,1781.33 1147.00,1782.01 1153.00,1780.00
             1153.00,1780.00 1176.19,1828.00 1176.19,1828.00
             1176.19,1828.00 1185.64,1845.00 1185.64,1845.00
             1185.64,1845.00 1204.10,1882.00 1204.10,1882.00
             1204.10,1882.00 1208.96,1890.00 1208.96,1890.00
             1208.96,1890.00 1214.03,1902.00 1214.03,1902.00
             1214.03,1902.00 1240.70,1952.00 1240.70,1952.00
             1240.70,1952.00 1250.31,1971.00 1250.31,1971.00
             1250.31,1971.00 1274.69,2015.00 1274.69,2015.00
             1274.69,2015.00 1283.79,2033.00 1283.79,2033.00
             1283.79,2033.00 1288.81,2041.00 1288.81,2041.00
             1288.81,2041.00 1328.05,2111.00 1328.05,2111.00
             1328.05,2111.00 1356.00,2152.00 1356.00,2152.00
             1346.92,2151.71 1339.34,2144.87 1332.00,2140.08
             1332.00,2140.08 1291.00,2115.45 1291.00,2115.45
             1291.00,2115.45 1270.18,2102.20 1270.18,2102.20
             1268.42,2101.77 1267.76,2101.91 1266.00,2102.20
             1264.81,2097.62 1261.64,2096.41 1258.00,2094.00
             1258.00,2094.00 1241.42,2083.12 1241.42,2083.12
             1237.85,2080.97 1236.35,2078.75 1232.00,2078.00
             1230.95,2074.95 1228.59,2073.93 1226.00,2072.16
             1221.39,2069.02 1216.64,2064.91 1211.00,2064.00
             1209.85,2060.13 1198.01,2051.66 1194.00,2051.00
             1192.87,2047.69 1180.91,2039.92 1177.42,2036.78
             1177.42,2036.78 1151.71,2015.49 1151.71,2015.49
             1151.71,2015.49 1142.58,2010.03 1142.58,2010.03
             1140.59,2008.33 1141.10,2006.47 1137.87,2003.63
             1137.87,2003.63 1124.09,1994.21 1124.09,1994.21
             1119.04,1990.32 1111.10,1978.73 1105.00,1978.00
             1104.22,1973.00 1100.01,1971.81 1096.42,1969.15
             1096.42,1969.15 1085.17,1958.73 1085.17,1958.73
             1085.17,1958.73 1077.59,1952.46 1077.59,1952.46
             1077.59,1952.46 1071.96,1946.00 1071.96,1946.00
             1071.96,1946.00 1063.45,1938.29 1063.45,1938.29
             1063.45,1938.29 1054.00,1928.00 1054.00,1928.00
             1054.00,1928.00 1041.00,1915.79 1041.00,1915.79
             1041.00,1915.79 1026.13,1899.01 1026.13,1899.01
             1023.91,1896.45 1022.40,1893.67 1019.00,1893.00
             1018.12,1889.12 1015.30,1886.94 1012.88,1883.91
             1006.99,1876.52 1005.72,1875.85 1001.67,1867.00
             1000.25,1863.90 1000.23,1858.19 997.00,1857.00 Z
           M 1387.00,2187.00
           C 1387.00,2187.00 1390.00,2190.00 1390.00,2190.00
             1390.00,2190.00 1387.00,2187.00 1387.00,2187.00 Z
           M 1532.00,2400.00
           C 1532.00,2400.00 1530.00,2403.00 1530.00,2403.00
             1530.00,2403.00 1533.00,2403.00 1533.00,2403.00
             1533.00,2403.00 1532.00,2400.00 1532.00,2400.00 Z" />
</svg>
